<svg xmlns="http://www.w3.org/2000/svg" viewBox="0 0 1080 1080"><defs><style>.cls-1{fill:#ff809b;}.cls-122,.cls-123,.cls-124,.cls-125,.cls-131,.cls-132,.cls-134,.cls-135,.cls-136,.cls-141,.cls-142,.cls-143,.cls-144,.cls-146,.cls-2,.cls-4,.cls-6,.cls-7,.cls-89,.cls-90,.cls-91,.cls-92{stroke:#000;}.cls-122,.cls-123,.cls-124,.cls-125,.cls-126,.cls-131,.cls-132,.cls-134,.cls-135,.cls-136,.cls-141,.cls-142,.cls-143,.cls-144,.cls-146,.cls-2,.cls-4,.cls-6,.cls-7,.cls-89,.cls-90,.cls-91,.cls-92{stroke-miterlimit:10;}.cls-3,.cls-92{fill:#fff;}.cls-4{fill:#314968;}.cls-5{fill:#2c425b;}.cls-6{fill:#a0837a;}.cls-61,.cls-7{fill:#e2e2e2;}.cls-8{fill:#4c3a5f;}.cls-9{fill:#534252;}.cls-10{fill:#2d4f87;}.cls-11{fill:#454651;}.cls-12{fill:#644051;}.cls-13{fill:#4d515e;}.cls-14{fill:#574b60;}.cls-15{fill:#575b6e;}.cls-16{fill:#56526e;}.cls-17{fill:#4c5276;}.cls-18{fill:#4d4263;}.cls-19{fill:#514a5d;}.cls-20{fill:#435;}.cls-21{fill:#534164;}.cls-22{fill:#535575;}.cls-23{fill:#755564;}.cls-24{fill:#969384;}.cls-25{fill:#685c6a;}.cls-26{fill:#836e8b;}.cls-27{fill:#484e5b;}.cls-28{fill:#4c5160;}.cls-29{fill:#564c5d;}.cls-30{fill:#846a4f;}.cls-31{fill:#5c698d;}.cls-32{fill:#484d6e;}.cls-33{fill:#5e495f;}.cls-34{fill:#6a5a6f;}.cls-35{fill:#5d4937;}.cls-36{fill:#766270;}.cls-37{fill:#545b67;}.cls-38{fill:#5d636d;}.cls-39{fill:#545c67;}.cls-40{fill:#4c5155;}.cls-41{fill:#4f5762;}.cls-42{fill:#4e3d54;}.cls-43{fill:#434b58;}.cls-44{fill:#3b3b44;}.cls-45{fill:#606673;}.cls-46{fill:#44484f;}.cls-47{fill:#525563;}.cls-48{fill:#5f5e71;}.cls-49{fill:#88786e;}.cls-50{fill:#898ea2;}.cls-51{fill:#999fb4;}.cls-52{fill:#434b63;}.cls-53{fill:#5b4a74;}.cls-54{fill:#abadcc;}.cls-55{fill:#5b4f5a;}.cls-56{fill:#726267;}.cls-57{fill:#555769;}.cls-58{fill:#7d818b;}.cls-59{fill:#8a7e7c;}.cls-60{fill:#505767;}.cls-62{fill:#68697b;}.cls-63{fill:#585342;}.cls-64{fill:#4d5161;}.cls-65{fill:#58606d;}.cls-66{fill:#52565e;}.cls-67{fill:#a09b7f;}.cls-68{fill:#968f6f;}.cls-69{fill:#81816e;}.cls-70{fill:#767262;}.cls-71{fill:#5a656d;}.cls-72{fill:#8d9188;}.cls-73{fill:#969aa2;}.cls-74{fill:#7d7384;}.cls-75{fill:#928a6a;}.cls-76{fill:#7e794d;}.cls-77{fill:#4c5360;}.cls-78{fill:#a6b0c7;}.cls-79{fill:#4c5260;}.cls-80{fill:#555d6b;}.cls-81{fill:#60666e;}.cls-82{fill:#505561;}.cls-83{fill:#585d66;}.cls-84{fill:#717784;}.cls-85{fill:#8c836a;}.cls-86{fill:#494c56;}.cls-87{fill:#4a4f59;}.cls-88{fill:#776e53;}.cls-89{fill:#82725b;}.cls-90{fill:#473d37;}.cls-91{fill:#521e28;}.cls-93{fill:#cbcbcb;}.cls-94{fill:#e4e4e4;}.cls-95{fill:#dadada;}.cls-96{fill:#d6d6d6;}.cls-97{fill:#bababa;}.cls-98{fill:#fafafa;}.cls-99{fill:#f9f9f9;}.cls-100{fill:#d7d7d7;}.cls-101{fill:#c2c2c2;}.cls-102{fill:#cecece;}.cls-103{fill:#d4d4d4;}.cls-104{fill:#4d4d4d;}.cls-105{fill:#c1c1c1;}.cls-106{fill:#a2a2a2;}.cls-107{fill:#5d5d5d;}.cls-108{fill:#6d6d6d;}.cls-109{fill:#666;}.cls-110{fill:#616161;}.cls-111{fill:#6f6f6f;}.cls-112{fill:#858585;}.cls-113{fill:#939393;}.cls-114{fill:#6e6e6e;}.cls-115{fill:#898989;}.cls-116{fill:#a4a4a4;}.cls-117{fill:silver;}.cls-118{fill:#767676;}.cls-119{fill:#828282;}.cls-120{fill:#888;}.cls-121{fill:#606060;}.cls-122{fill:#3184de;}.cls-123{fill:#9c7c74;}.cls-124,.cls-125{fill:#ba938c;}.cls-124{stroke-width:0.5px;}.cls-125{stroke-width:0.42px;}.cls-126,.cls-135{fill:none;}.cls-126{stroke:#355166;}.cls-127{fill:#2b77bc;}.cls-128{fill:#2d7dc4;}.cls-129{fill:#2972a8;}.cls-130{fill:#c4c4c4;}.cls-131{fill:#b49586;}.cls-132,.cls-137{fill:#9b8075;}.cls-132{stroke-width:0.75px;}.cls-133{fill:#301f26;}.cls-134{fill:#ccccba;}.cls-136{fill:#976175;}.cls-138,.cls-139,.cls-140{fill:#8e756c;}.cls-139{opacity:0.5;}.cls-140{opacity:0.3;}.cls-141{fill:#a17c4a;}.cls-142{fill:#d1af6b;}.cls-143{fill:#b79852;}.cls-144{fill:#141914;opacity:0.97;}.cls-145{fill:#b2989c;}.cls-146{fill:#605842;}</style></defs><g id="Layer_21" data-name="Layer 21"><rect class="cls-1" width="1080" height="1080"/></g><g id="Pants_Socks" data-name="Pants/Socks"><path class="cls-2" d="M595.83,1079.52c4.56-1.69,8.2-7.47,10.38-11.27a137.31,137.31,0,0,1,11.22-16.64c4-5.07,9.87-9.4,13.18-14.91a19.3,19.3,0,0,0,2.27-8.3,1.58,1.58,0,0,0-2.11-1.58c-6.65,2.31-13.31,5.08-20.84,3.31-8.19-1.93-14.27-7.92-20.24-13.34a8.9,8.9,0,0,0-5.85-2.38,2.31,2.31,0,0,0-1.16.24,3,3,0,0,0-.86.82c-5.06,6.38-10.48,11.68-18.22,14.77-6.65,3.09-13.05,6.25-20.1,8.26l-9,7c-5,6.61-9.23,10.41-4.23,18.93,2.29,3.89,8.2,15.09,13.49,15.09,10.92,0,21.83.18,32.75.33,5.67.07,11.49.5,17.15.15A7.48,7.48,0,0,0,595.83,1079.52Z"/><path class="cls-3" d="M555.54,1034.55a.27.27,0,0,0-.07.08.61.61,0,0,0-.06.33l0,5c0,6.62,5.63,12.56,9.05,17.82,4,6.17,8.32,12.25,13.84,17.16l5.18,4.6h12c.56-.22,1.13-.42,1.66-.69-.56-2.93-4.37-5.8-6.47-7.71-4.48-4.08-8.87-8.22-13.34-12.3-4.07-3.72-8-7.68-10.4-12.74a25.1,25.1,0,0,1-1.69-7.31c-.14-1-1.55-8-.88-8.27l-8.61,3.93A.88.88,0,0,0,555.54,1034.55Z"/><path class="cls-3" d="M571.24,1027.46c-.32,2,.32,5.18.7,6.84,1.75,7.63,7,13.68,12.59,18.91,6.48,6.12,13.23,12,20,17.86-.64-.59,7.21-11.56,8-12.76-2.65-3-6.69-4.32-10.32-6.07a42.06,42.06,0,0,1-21-23.78,12.71,12.71,0,0,1-.88-3.88c0-1.59.43-3.17.34-4.76-.18-3.2-2.86.24-3.76,1.14-1.06,1-2.17,2.07-3.18,3.17-.62.68-1.82,1.55-2.18,2.38A3.77,3.77,0,0,0,571.24,1027.46Z"/><path class="cls-4" d="M656.17,900.61c1.13,3.16-.62,9.12-.68,11.72a3.17,3.17,0,0,1-.15,1.15,3,3,0,0,1-.69.93c-3.49,3.55-6.72,6.94-7.24,12.19a122.39,122.39,0,0,0-.82,13.25c0,4.3,1,8.23,1.62,12.45.3,2.26.14,4.34.23,6.63.24,5.81,2.39,11.37,3.1,17.11.83,6.68,1.18,13.48,1.7,20.19a22.88,22.88,0,0,1-.81,9c-1,3.15-3.48,4.54-5.31,7.15a44.23,44.23,0,0,1-9,9.76c-2.58,2-5.31,3.07-7.56,5.41-1.22,1.26-6.26,1.67-8,2-9.39,1.77-16.71.4-24.35-5.48-2.39-1.84-4.65-3.86-7-5.74-1.66-1.32-3.69-2.16-5.26-3.6-1.73-1.57-2-3.33-2.82-5.42s-2.3-2.57-3.56-4c-1.48-1.74-1.1-3.57-1-5.7.22-3.88-1.47-7.61-1.75-11.49-.4-5.49.2-9.06-3.17-13.72-6-8.32-8-17.53-8.88-27.53a178,178,0,0,1,.6-34.16l-.61,27.16c0,.36-.22.86-.55.73a.57.57,0,0,1-.26-.42c-.78-3-1.41-6-2.36-9-1.64-5.07-4-9.91-5.87-14.89a71,71,0,0,1-2.83-8.49,17.34,17.34,0,0,1-.32-7.17c.13-.66,14-.72,15.38-.82,4.73-.35,9.61.23,14.3-.7a24.05,24.05,0,0,1,3.46-.59c3-.15,5,2.2,8.24,2.07.95,0,2.08-.19,2.5-1a2.92,2.92,0,0,0,3,1,2.7,2.7,0,0,1,.74-1.37c1-.77,4.83,1.83,6.06,2.12a11.81,11.81,0,0,0,7.44-.6,3.7,3.7,0,0,0,1.16-.85c3.9-3.9,9.23-3.29,14.6-3.29a180.51,180.51,0,0,1,21.8,1.4,8.07,8.07,0,0,1,3.83,1.2A3.12,3.12,0,0,1,656.17,900.61Z"/><path class="cls-2" d="M489.87,875.83a2.14,2.14,0,0,0-.47,1.16c-.19,1.44.57,3.41.85,4.85.37,1.84.82,3.67,1.26,5.49.89,3.66,1.83,7.31,2.46,11a21.55,21.55,0,0,0,.55,2.63c.72,2.42,1.92,4.85,4.35,5.93,4.77,2.13,10.33-1.71,13.81-4.67,1.43-1.21,2.63-2.86,4.15-3.9.91-.63,2.16-.69,3-1.33a1.47,1.47,0,0,0,.64-1.51c-.28-1-4.09-2.16-5-2.7-2.19-1.3-4.33-2.69-6.39-4.19a75.26,75.26,0,0,1-10.38-8.9,17.42,17.42,0,0,0-4.13-3.53C493.28,875.48,490.9,874.63,489.87,875.83Z"/></g><g id="Pants_Wrinkles" data-name="Pants Wrinkles"><path class="cls-5" d="M583,906c5.49,5.88,10.69,13.69,18.27,16.77L619,930"/><path class="cls-5" d="M573,936c6.17,8.21,11.56,15.89,22.06,18.78"/><path class="cls-5" d="M614,951c10.34,2.18,20.5,5.55,30.93,1.8"/><path class="cls-5" d="M614,1001c6.74-1.12,17.31-1,23.38-4.26,4.69-2.54,8.46-10.48,11.62-14.74"/><path class="cls-5" d="M612,1019c7.48-1.44,19-1.63,25.67-5.46,4.55-2.63,8-8.55,11.32-12.55"/><path class="cls-5" d="M580,985c2.82,1.32,5.34,3.54,8.63,3.56a14.83,14.83,0,0,0,3.68-.61L604,985"/></g><g id="Neck"><path class="cls-6" d="M608,591c10.69-4.75,22-7.82,32.81-12.46a213.18,213.18,0,0,0,27-14c3.95-2.41,6.7-4.32,8.93-8.48,1.49-2.78,2.5-5.79,4-8.53,1.7-3,4.93-3.7,7-.14a9.34,9.34,0,0,1,1,2.93l1.21,5.77c2,9.45-3,21-5.21,30.25L680,606l-60,33-16-36Z"/></g><g id="Shirt_Torso" data-name="Shirt Torso"><path class="cls-7" d="M549.5,552.44a11.45,11.45,0,0,1,2.12.2c3.9,8.19,2.13,18.06,5.26,26.58,4.16,11.29,16.53,15.26,26.92,19a43.94,43.94,0,0,0,5.34,1.66c14,3.08,31.49.18,45.85,0,6.23-.08,19.73-3,25.51-.35l11,5,9,58,31,60,7,19-36,21-165,11c-13.75.92-24-3.35-31-15l11-30,17-76-6-37-7-21,13-17C522.8,570.58,537.7,552.49,549.5,552.44Z"/></g><g id="Shirt_Graphic" data-name="Shirt Graphic"><path class="cls-8" d="M581.85,756h-8.78q-.32-.33-.66-.63a16.31,16.31,0,0,0-4.27-5.25c.48-1.35,2-1.76,2.69-2.88a2.41,2.41,0,0,0,.51-1.22c.16-2.39-2-3.27-3.11-4.81s-1.73-3.73-4.49-2.78a1.81,1.81,0,0,1-2.27-1c-.74-2.79-3.13-3.19-5.27-4a3.4,3.4,0,0,1-1.43-3.55,2.58,2.58,0,0,1,2.28-2c.66-.08,1.64.81,1.94-.32s-.83-1.58-1.69-2a2.87,2.87,0,0,1-.54-.37,2.08,2.08,0,0,1-.4-.85c.11-2.14,2.13-3.48,2.3-5.59a8.61,8.61,0,0,0,.74-2.32,5.38,5.38,0,0,1,.67-1.16c3.21-4.83,5.39-5.29,10.55-2.41,2.65,1.48,4,3.51,3.37,6.62-.3,1.33-.14,2.7-.48,4a2.22,2.22,0,0,0,1,2.6,3.82,3.82,0,0,1,1.14,2.6,24.79,24.79,0,0,0,.26,17.41c.56,1.68.1,3.32-.17,5-.19,1.17-.16,2.34,1.26,2.71a2.27,2.27,0,0,0,2.82-1.21c.62-1.14.94-2.58,2.53-2.91,1.68.44,2.12,1.58,1.78,3.15S582.77,755.05,581.85,756Z"/><path class="cls-9" d="M583.2,752.59c.73-1.14-.28-1.83-.69-2.68-1.1-.86-1-1.95-.63-3.1a2.24,2.24,0,0,1,.66-.8c3.38-1.2,4.86-4.17,4.44-8.94a5.62,5.62,0,0,1-.15-1.87c.19-.87.22-2,1.28-2.14s1.8.92,2.12,1.81c1.17,3.15,3.51,4.75,6.67,5.41,1.5,1.5-.06,3.53.6,5.5,1.71-1.07,1.39-2.87,2.45-3.8,1.49-.87,2.43-2.4,3.89-3.3,1.11-.49,2.2.05,3.3.07a1.53,1.53,0,0,1,1.6,1.59c-.93,3-.06,6.62-2.72,9.15a2.31,2.31,0,0,1-1,0c-.93-.12-1.1-2.14-2.33-1.11a2.77,2.77,0,0,0-.64,3.11c1.44.46,2.18-1.73,3.66-.93a4.25,4.25,0,0,1,1,3.83c-.17.73-.79,1.11-1.27,1.6h-18.9C586,754.28,584.12,753.93,583.2,752.59Z"/><path class="cls-10" d="M522.49,665.59l-1.39,0v-6.08l3.33.71a3.49,3.49,0,0,1,1.07,4.66A1.85,1.85,0,0,1,522.49,665.59Z"/><path class="cls-11" d="M606.11,714c2.55,0,5.18-.65,7.59.78,4.52,3.2,1.89,6.68.41,10.12-1.41,1-2.68-.14-4-.22a3,3,0,0,1-1.23-.57c-.65-.57-.76-1.47-1.3-2.11-1.6-.46-3.35,0-4.87-.89-2.45-2.17-2.13-4.91.66-6.26C604.24,714.42,605.38,714.88,606.11,714Z"/><path class="cls-12" d="M608.18,754.62a1.2,1.2,0,0,1-2,0,7.84,7.84,0,0,1-.67-4.08.88.88,0,0,1,0-1.34c1.82-2.89.42-6.7,2.7-9.46a7.79,7.79,0,0,1,1.25-2.28c.73-2.86,2.15-5.08,5.3-5.68l2.23,2.62c0,3.55-2.85,6-3.66,9.19a16,16,0,0,0-1.38,3.59C610.61,749.66,610.54,752.72,608.18,754.62Z"/><path class="cls-13" d="M628.48,708.61c-1.07-1.39-2.22-2.73-3.19-4.18-2.2-3.29-2-4.07,1.18-6.39l.39-.31c4,0,5.94,1.62,7.22,6.47a7.47,7.47,0,0,0,5.15,5.67c.76.56,1.85.78,2.1,2.22-1.57.59-3.32.33-4.9.8l-3.3-1.3-2.16-.78A13.4,13.4,0,0,1,628.48,708.61Z"/><path class="cls-14" d="M621.67,736.48c4.76,2.31,5.19,4.26,2,9.39-1.16,1.82.47,3.5.27,5.26-3.13.69-5.72-.48-5.58-3,.12-2.28-1.06-2.53-2.56-2.94-1.47-4-.19-7.14,3.78-9.23Z"/><path class="cls-15" d="M636.43,712.89c1.17-.86,2.64-.59,4.05-1l-1.92-1.16c.66-1.23,2.05-1.26,3.1-1.84a3.11,3.11,0,0,0,1.94-2.9c-.11-1.58-1.62-1.19-2.62-1.47-2-.57-4.29-.56-5.38-2.83,0-1,1-1.08,1.57-1.6,2.46.09,4.85.69,7.36.56,2.8-.14,4.16,1.84,3.65,4.69a10.73,10.73,0,0,1-2.16,4.87C643.14,712.25,640.08,713.66,636.43,712.89Z"/><path class="cls-16" d="M614.73,731.83c-1.4,2.29-4.22,3.61-4.54,6.63-3.92.94-3.59-2.49-4.39-4.49s.58-3,2.53-3.38c1.3-.25,1.29-1.36,1.16-2.42.06-1.53-.24-3.12.66-4.52,1.58-.4,2.4,1.59,4,1.26C610,727.6,614,729.57,614.73,731.83Z"/><path class="cls-17" d="M619.61,735.92c-1.66,2.9-4.14,5.5-3.33,9.28.08,1.14-.73,1.37-1.58,1.56-2.71.11-3.31-1.24-2.47-3.58,1.17-3.13,2.41-6.22,4.73-8.73Z"/><path class="cls-18" d="M556.77,724.92c3.4-.71,4.63.42,4,3.81-.32,1.62-1.56,2.07-2.64.9s-1.81-.79-2.68.07-1.74.14-2.56-.29c-3.15-.09-3.73,2.74-5.15,4.58-1.12,1.47-1.64,3.56-4,3.58-.88-.27-1.76.12-2.64,0-1.61-.24-3.13-.69-3.74-2.35a3.4,3.4,0,0,1,1.39-4.36c1.14-.56,3.1.09,3.13-2.11a3.54,3.54,0,0,0-2.71-3.65c-2.35-2.83-.8-6-.74-9,.33-1.86-.06-3.87,1.2-5.54a2,2,0,0,1,1.72-.76c3.26,3.9,8.53,5.07,12,8.75a18.14,18.14,0,0,1,1.69,3.35A4.64,4.64,0,0,0,556.77,724.92Z"/><path class="cls-19" d="M572.39,724.26c0-1.45,0-2.91.12-4.34.15-1.59,1.34-3.25-.49-4.6-2.36-1.74-4.89-3.13-7.93-3.1a2,2,0,0,0-1.89,2c-.1,1.41-1.09,2-2,2.71-2-.26-2.2-2-2.75-3.37a2.93,2.93,0,0,1,.3-1.93c2.38-1.12,1-3.45,1.64-5.14,1.24-1.6,2.78-2,4.25-.52,2.75,2.71,5.54,2.77,8.61.61a4.9,4.9,0,0,1,3.16-.83c4.28,1,5.41,2.43,4.89,6.26a3.29,3.29,0,0,0,.92,2.44,4,4,0,0,0,1.8,2c2,.82,3.82,1.94,3.74,4.45-.07,2.31-1.53,3.52-3.67,4-1.31-.14-2.18.56-3.14,1.38-1.36,1.16-2.68,2.67-4.85,2-.49-.65-1.31-1.07-1.36-2C574,725.13,572.71,725,572.39,724.26Z"/><path class="cls-20" d="M573.07,755.33A48.24,48.24,0,0,0,562.25,754c-3.15-.51-4.53-2.45-4.5-5.53-.71-3.62,0-7.42-1.54-10.93-.38-1.56-.83-3.14.65-4.42,2.1.54,5.76-1.49,5.16,3.46-.17,1.38,1.49,1.38,2.53.56.86-.67,2-1.45,2.48-.18,1.5,3.66,5.81,5.72,5.74,10.26,0,.84-.06,1.05-.84.72-1.54-.21-1.65-1.89-2.72-2.71-.73,1.51.54,3.33-.81,4.65C572,749.92,572.56,752.61,573.07,755.33Z"/><path class="cls-21" d="M575.1,728.33c1.43-1.76,4.29-1.76,5-4.56.33-1.26,1.64-.11,2.39.5,1.85,1.41,0,3.44.85,5,0,1.21,1.1,2,1.23,3.13a3.43,3.43,0,0,1-.64,2.38c-1.72,3.11-2.4,6.76-4.79,9.54-1.42.62-2,2.74-4.08,2.2C572.07,742.42,572.07,732.37,575.1,728.33Z"/><path class="cls-22" d="M575.1,746.56c1.25-.75,1.85-2.31,3.38-2.7,1.08.74.66,2,.95,3,1.12.32,2-1.1,3.13-.27,0,1.11,0,2.22,0,3.33a22,22,0,0,0-1.3,3.05c-.8,3-3.14,2.73-5.11,2.16-2.24-.65-2.48-2.65-1.59-4.63A9,9,0,0,0,575.1,746.56Z"/><path class="cls-23" d="M554.25,722.27c-1.48-.68-1.45-2-1.49-3.35a2.91,2.91,0,0,1-.53-3.31c3.31-2.46,6.39-1.09,7.36,3.28.68,2.64-1.61,3.74-2.82,5.41C555.17,724.57,555.11,722.92,554.25,722.27Z"/><path class="cls-24" d="M559.59,718.89c-1.81-1.94-3.52-4.09-6.66-3.51-1.66-1.83-.72-3.14.86-4.33,2.37-.88,3.48.63,4.47,2.37l1.94,3.52C560.22,717.66,560.28,718.39,559.59,718.89Z"/><path class="cls-25" d="M572.39,724.26h3.32c0,1.6-1.31,1.47-2,2C572.7,726,571.33,725.94,572.39,724.26Z"/><path class="cls-26" d="M554.25,722.27c1.36,0,1.78,1.24,2.52,2a2.56,2.56,0,0,1,0,.62Q553.94,725.09,554.25,722.27Z"/><path class="cls-27" d="M620.86,697.3a3.27,3.27,0,0,1-1.59,3.09c-4.65,3.34-13,2-16-2.83-1.64-2.61-2.4-2.57-3.63.22-.59,1.35-1.94,2.38-2.94,3.55-1.16,1.63-2.44,2.53-4.22.79-1.59-1.62-.85-3.7-1.09-5.58-.7-1.33-2-.82-3.08-1-2-.24-4.1-.13-4.89-2.58-.94-1.61-2-3.18-1.88-5.19a13.76,13.76,0,0,0,.74-3.48c.73-1.89.89-4,1.87-5.78,1.61-1.24,1.24-4,3.59-4.67a30.77,30.77,0,0,0,5.8-.94c2.19-.42,4,0,4.13,2.77.34,3.5-1.19,6.77-1.11,10.26a39.11,39.11,0,0,1,2.89-10.73c3.93-4.75,7.51-5.8,13.12-3.86a12.25,12.25,0,0,1,1.91.8c1.56.9,3.13,1.8,3.75,3.68,1.64,2.37,4.18,4,5.51,6.63.4,3.54,1.83,7.38-2.72,9.51a12.07,12.07,0,0,1-10.54-1.71c-1-.67-2-1.36-3.12-2-1.28-.7-2.67-1.65-3.93-.23-1.1,1.24-.24,2.52.47,3.68,1.9,3.12,2.7,3.4,6.23,2a9.12,9.12,0,0,1,7.79-.07C619.45,694.37,620.93,695.25,620.86,697.3Z"/><path class="cls-28" d="M637.17,700.11a1.36,1.36,0,0,1-1.32,1.22c-1.46,1.07-2.48.16-3.46-.79a45,45,0,0,0-3.45-3.59,11.3,11.3,0,0,1-2.73-6,3.24,3.24,0,0,1,1.44-3.79,12.23,12.23,0,0,1,3.53-3.19c1.8-.31,3.8-.59,5.1.85,3.38,3.75,7.58,4.36,12.22,3.82,1.43,1.6,2.42,3.39,1.1,5.43a8.29,8.29,0,0,1-6.28,3.89c-1.78.18-2.72-1.35-3.34-2.84a27.9,27.9,0,0,0-3.75-6.31c-1.11-1.44-2.53-2.3-4.36-1.21s-1.75,2.86-1.23,4.46A13.35,13.35,0,0,0,637.17,700.11Z"/><path class="cls-29" d="M610.87,728.28c-.15,2.13-.46,4.06-3.41,3.53-.61-.11-1.2.46-.91,1,1,2,.41,5.07,3.64,5.63l-2,1.33c-.45-.51-.89-.15-1.34,0-.79-.55-1-1.52-1.64-2.2-1.61-2.09-3.43-3-6-1.32a3.72,3.72,0,0,1-3.22.21c-.77-.37-1.43-1-1.24-1.8,1-4.09,1.27-8.44,4.49-11.66,1.06-.48,2.5-.76,3.05.17,1.57,2.67,1-.83,1.7-.49,1.11-.55,1.89,0,2.62.77a4.77,4.77,0,0,1,.52.8C608.49,725.53,608.29,728.18,610.87,728.28Z"/><path class="cls-29" d="M596.7,740.47a4.86,4.86,0,0,1-6.23-2.56,11.67,11.67,0,0,0-2-3.8c-.53-.56-.33.61-.53,1-1.84.16-1.75-1.58-2.48-2.51a3,3,0,0,1,0-.95c1-2.14-.55-3.32-1.75-4.64,1.17-2.76,2.52-3.13,4.09-.83,1.19,1.75,2,2.6,3.66.6a2.42,2.42,0,0,1,3.6-.52,3.08,3.08,0,0,1,1,3.66c-.34.94-.65,1.91-1,2.81-1.1,2.79-.15,4,2.65,4.07C599.38,739.43,599.23,740.05,596.7,740.47Z"/><path class="cls-30" d="M596.7,740.47c2.2-1.12,1.39-2.24,0-3.37a.85.85,0,0,1,0-1.33,13,13,0,0,0,2.52-.69c3.88-2,4.13-1.92,6.92,2-.15,1.19-1.05,1.5-2,1.73-1.87.55-2.44,2.29-3.39,3.68a3.33,3.33,0,0,0-.77,2.81c.08,2-1.5,2.23-2.73,2.05a2.14,2.14,0,0,1-1.6-3.09C596.17,743,596.85,741.88,596.7,740.47Z"/><path class="cls-31" d="M582.56,746.58l-.57.31c-1.32.69-2.17,3.17-3.5,2.41-1.78-1-.12-3.14,0-4.79l0-.65c1.85-3,2.42-6.67,4.72-9.46,2.86.35,2.68,2.75,3.18,4.7-.32,2.79-.16,5.8-3.22,7.41A4.09,4.09,0,0,0,582.56,746.58Z"/><path class="cls-32" d="M605.48,749.25c0,.45,0,.9,0,1.34-.51.73-1,1.49-1.55,2.17a2.16,2.16,0,0,1-2.74.51c-1.09-.44-1.11-1.28-.9-2.22.13-.54.3-1.07.44-1.61.4-1.65.67-3.47,2.92-3.47C606.07,746,604.51,748.35,605.48,749.25Z"/><path class="cls-33" d="M583.16,746.51a26.37,26.37,0,0,0,2.1-7.39c.5-1.22.21-3.47,2.7-2C589.39,741.45,587,746.2,583.16,746.51Z"/><path class="cls-34" d="M588,737.08c-1.4,0-2.11.95-2.7,2a7.48,7.48,0,0,0-2.06-4.72c.23-.68.45-1.35.68-2,.69-.47,1.39.09,2.08,0,1.2.51,1.12,1.93,1.95,2.71C587.93,735.74,588,736.41,588,737.08Z"/><path class="cls-35" d="M600.79,742.5c.14-2.15.59-4,3.34-4,.25.08.34.19.29.32s-.12.23-.19.23C603.31,740.4,602.46,741.86,600.79,742.5Z"/><path class="cls-36" d="M604.23,739c0-.19-.07-.37-.1-.55l2.06-1.38c.74.78.6,1.77.65,2.71C605.71,740.4,605.21,738.92,604.23,739Z"/><path class="cls-37" d="M522.48,641.23c.91-1.23,1.45-2.52.65-4,.88-1.31,1.65-.88,2.09.29.38,1,.59,2.1.9,3.15a17.82,17.82,0,0,0,1.44,3.93c.75.73,1.38,2.16,2.53,1.63s.5-1.9.18-2.92a4.14,4.14,0,0,1-.1-1.85,6.25,6.25,0,0,0-2.95-5.53,10,10,0,0,1-2-1.6,3.11,3.11,0,0,1-1.85-3.23c.16-1.77,0-3.56.06-5.34,0-.81-.43-2,.81-2.23s1.63.84,1.82,1.87c.06.33.1.66.19,1,.38,1-.27,2.22.48,3.2a7.22,7.22,0,0,0,4,1.59c3-.4,2.58-3,3.06-4.94,1.19-4.58,1-4.85-2.89-7.4a10.59,10.59,0,0,0-3.38-1.24c-1.09-.2-2-.81-2-1.87s0-2.63,1.71-2.89l2.55.21c3.53-.2,5.66,1.57,6.72,4.82,1.19,2.28,1,4.7.73,7.13a18.26,18.26,0,0,1-3.1,11.68c-.52.76,0,1.52.08,2.28.15,1.07,0,2.13.07,3.19a21,21,0,0,1,.34,8.92c-1.62,2.06-3.47,1.43-5.28.39a14.35,14.35,0,0,1-5.72-6.13Z"/><path class="cls-38" d="M550.72,603.52a40.36,40.36,0,0,1,6.52,6.48c.75,1,1.32,1.73.28,2.79-2.1-.2-2.89,1.05-3.18,2.86-1.35,4.64-3.19,9.1-4.77,13.65a7.33,7.33,0,0,1-1.85,3.17c-1.54,1-2.93,1.13-4-.64,0-1.36-.21-2.74.29-4.07q1.37-3.72,2.72-7.44c.73-3.5,2.95-6.36,4.12-9.69.75-2.14,1.31-4.08-1.16-5.52-.51-.3-1.19-.88-.52-1.6C549.59,603,550.19,603.38,550.72,603.52Z"/><path class="cls-39" d="M561.71,620.35c-.6,1.9.38,3,1.79,4.11a25.63,25.63,0,0,1,2.71,2.8,2.42,2.42,0,0,1,1.48,3.29c-1.17,3.85-2.11,7.76-3.63,11.5-.59,1.47-1.45,2.64-3.17,2.44a3.41,3.41,0,0,1-3-3.22,9.09,9.09,0,0,1,.49-4.93,29.46,29.46,0,0,0,1.5-6.51c.18-1.07.56-2.21-1.34-3.51.86,5,1.19,9.57-1.85,13.46-3.94.37-5.24-1.08-5-5.54a96,96,0,0,1,4.46-17,1.78,1.78,0,0,1,.86-.59c2.08.09,3.32,1.46,4.45,3Z"/><path class="cls-40" d="M561.52,619.63c-1.61-.48-3.36-.74-4-2.69a1.21,1.21,0,0,1,.08-1.86c1.48-2.59,3-3,4.73-.17A10.34,10.34,0,0,1,561.52,619.63Z"/><path class="cls-41" d="M527.74,750h-.6c-.74-2.92-1.45-5.85-2.24-8.75-.23-.87,0-1.27.86-1.37.9,1.06,1.69,1.63,2.06-.38a50.49,50.49,0,0,0,.76-9.18c.75-.6,1.69-.42,1.91.28.36,1.17,1.43,1,2.07,1.54,1.51,4.57.48,9.2.31,13.8a4.68,4.68,0,0,1-.16,1.06C531.48,748.72,530.7,751.18,527.74,750Z"/><path class="cls-42" d="M623.72,751.26a7.64,7.64,0,0,0,3.35.73c-6.27,1.07-12.43,2.93-18.89,2.63l2.68-8.08c1.36.79,1.06,2.28,1.62,4,.68-1.91.54-3.91,2.45-4.61l1.35-.71c1.89,0,1.68-2,3.07-3.34C620,745.67,617.93,750.56,623.72,751.26Z"/><path class="cls-43" d="M531.89,731.7c-.46.13-.88,1.33-1.39.12a2.23,2.23,0,0,0-1.92-1.48c0-1.35-.05-2.7-.07-4-.82-1.22-.61-2.53-.39-3.85,1-4.6.39-9.19-.09-13.78-.29-1.81-.65-3.62.08-5.42a2.78,2.78,0,0,1,.82-1.92c2.63-.32,1.84,2.47,3.1,3.4.2.61.53,1.18.76,1.78.37,2.73,2.76,3.87,4.43,5.58,1.5.95,1.51,2.67,2.1,4.08.26,2.86-.72,5.72,0,8.58a7.31,7.31,0,0,1,0,6.28c-.82,1.28-2,2.59-1,4.17.89,1.36,2.42,1.39,3.87,1,1.06-.27,1.71,0,1.94,1.08a1.53,1.53,0,0,1,.18.89c-.54,1.07-.45,2.47-1.64,3.21-2.42-.31-4.75-1.27-7.25-1.13a3.94,3.94,0,0,1-.59-1.95,6.08,6.08,0,0,1,.11-3.75c1.26-2.06-.3-4-.19-6.05,0-3.09,1.14-6.07.85-8.72.43,2.11-.73,4.52-.75,7.06-.37,1.47-.52,3-1.6,4.23A1.92,1.92,0,0,1,531.89,731.7Z"/><path class="cls-44" d="M536.05,740.51c.88-2,2.09-2.64,4-1.12a23.84,23.84,0,0,0,2.81,1.66c1.17-.28,1.92.4,2.63,1.18a3.68,3.68,0,0,1,.84,2.37,14.84,14.84,0,0,1-.67,3.91c-1.31,1.8-1.34,4.08-2.22,6a18.31,18.31,0,0,0-5.31-.58C535.54,751,534.35,743.4,536.05,740.51Z"/><path class="cls-45" d="M527.26,612.8c-2,2.52-1.13,3.7,1.83,4,1,.1,2.07-.07,2.79.87-3.48,1.26-4.7,4-4.89,7.44,0,.93-.42,2-1.81,2-.18-.95.27-2-.57-2.86-1.77,3.79-1.06,7.37,1.89,9.56-.57,1.48-.27,3-.32,4.56,0,1.11.08,2.22-1.11,2.87-.74-.85-.58-1.89-.6-2.88s-.19-1.59-1.34-1.19c0-1.61.19-3.25-.69-4.74,1.33-4.42.29-9.07,1.32-13.51a9.81,9.81,0,0,1,1.91-5.83C526.12,612.43,526.6,612.27,527.26,612.8Z"/><path class="cls-46" d="M531.83,747.23a13.61,13.61,0,0,0,.64,2.57c1.38,2.91.16,3.81-2.65,3.58-1.09-.87-2.11-1.78-2.08-3.35C529.66,749.9,530.38,748,531.83,747.23Z"/><path class="cls-47" d="M596.75,735.77c0,.44,0,.88,0,1.33-2.78.69-3.88-.34-3.11-3.13.44-1.6,1.08-3.16,1.52-4.77a2.1,2.1,0,0,0-1.07-2.57c-1-.51-1.66.29-2.09,1.12-.65,1.22-1.4,2.5-2.94,2.37s-1.46-1.69-1.86-2.82c-.82-2.37-2-2.58-3.27-.3a.93.93,0,0,1,.29.77,3.05,3.05,0,0,1-1.67,1.91c-1.5-1.81.49-3.61,0-5.41,4.73-2.6,4.59-4.1-.69-7.35a2.4,2.4,0,0,0-1.44-2.08,2.23,2.23,0,0,1-1.16-2.18c1.58-2.2,2.91-4.41.43-6.87-.21-1.76-.47-3.53,1.15-4.85a2.86,2.86,0,0,1,.77-.7,2.64,2.64,0,0,1,1.49-.22c2.69.69,3.45,2.88,4,5.22a4.59,4.59,0,0,1,.24.88c.36,2.13,1,3.17,2.45.58a2.37,2.37,0,0,1,1.59-1.12,1.53,1.53,0,0,1,1.27.46c1,1.22-1,2.2-.06,3.71-.78-1.52,1.23-2.68-.14-3.91.42-2.63,1.77-1.39,3-.72.93.53,1.48,1.49,2.38,2.06.33.28.65.59,1,.87,1.63,3,2.83,6.51,7.34,6-1.42,1.13-3.06,1.94-4,3.72s-.23,2.18,1.25,2.47c.38.48.08.84-.23,1.19a6.58,6.58,0,0,0-3.1,2.22,30.63,30.63,0,0,0-4.31,11.45C595.71,735.22,596.4,735.53,596.75,735.77Z"/><path class="cls-48" d="M595.29,706.07c-.88.5-1.75-2.36-2.64,0h0l-1.26,0c-1.6.15-3.21,1.28-4.81,0v-.69c.5-3.69,1.62-4.38,6.67-4.13,1.09,2.23,2.33-.38,3.48.1,1.82,1.89,2,4.27,2,6.72l-1.49,0C596.73,707.24,596.73,705.91,595.29,706.07Z"/><path class="cls-49" d="M610.87,728.28c-2.85,2.32-2.91,2.33-3.38-1.15A4,4,0,0,0,606.2,725a2,2,0,0,1,2.73-1.38l1.22.06C611.17,725.07,610.91,726.69,610.87,728.28Z"/><path class="cls-50" d="M602.75,720.88l.64-.68c1.88,1.32,4.16-.71,6,.73-1.37.94-2,2.55-3.38,3.51-.47-.71-.7-1.72-1.91-1.52-.8.57-1.63.64-2.17-.24S602.12,721.32,602.75,720.88Z"/><path class="cls-51" d="M606,724.44c.17-2.09,1-3.57,3.38-3.51l-.48,2.66L606.2,725A1.43,1.43,0,0,1,606,724.44Z"/><path class="cls-52" d="M614.93,745.91c-1.13,1.68-.27,3.77-1.13,5.5-.4.81-.79,1.77-1.87,1.62-1.24-.17-1-1.3-1-2.14,0-1.45,0-2.9,0-4.35.45-1.12.91-2.24,1.37-3.36C612,745.21,612.94,746.08,614.93,745.91Z"/><path class="cls-53" d="M554.18,711.5a4.5,4.5,0,0,0-1.25,3.88c-.06,1.18-.11,2.36-.17,3.54a7.88,7.88,0,0,1-3.72-2.1c-.89-.81-2-2.12-2.92-2.06-3.57.25-4.06-2.23-4.78-4.66-.32-4.59,1.29-8.64,3.74-12.35.8-1.2,2.48-.73,3.79-.81a6.58,6.58,0,0,1,4,.59,4.37,4.37,0,0,1,1.66,2.4c-.32,2.43,1.28,3.91,2.73,5.46a2.41,2.41,0,0,1,.06,1.43C556.44,708.47,556.09,710.52,554.18,711.5Z"/><path class="cls-54" d="M539.32,731a6.74,6.74,0,0,1,0-6.28c.57-.37.92-1.21,1.89-.38,2,1.67,2.85,5.24,1.35,7.5S540.56,730.78,539.32,731Z"/><path class="cls-55" d="M549.53,697.89c-3.34-.53-4.87,1.22-5.66,4.23-.7,2.7-1.67,5.32-2.53,8l-1.3.72-.43-.32c-.91-3.47,1.29-6.34,1.86-9.53a7.7,7.7,0,0,1,3.87-5.11,5,5,0,0,1,3.32.11A1.7,1.7,0,0,1,549.53,697.89Z"/><path class="cls-55" d="M539.32,716.17l-2.72-3.25c-.05-.84-.22-1.71.47-2.41a2.19,2.19,0,0,1,1.43-.52,2.25,2.25,0,0,1,1.37.66l.17.17Z"/><path class="cls-56" d="M554.18,711.5c1-1.54.23-4,2.62-4.81a2,2,0,0,1,2.06.92c.51,1.39.71,2.74-.61,3.85,0,.65,0,1.31,0,2C556.91,712.77,555.8,711.59,554.18,711.5Z"/><path class="cls-57" d="M558.25,711.46v-4.05c.21-.62.57-1,1.28-.72l.09.06a7.61,7.61,0,0,1,.63,4.28C560.09,713.35,559,711.61,558.25,711.46Z"/><path class="cls-58" d="M580.4,714.84c1.45-1.16,1.62.52,2.13,1.08s-.13.88-.69,1A3.28,3.28,0,0,1,580.4,714.84Z"/><path class="cls-59" d="M582.51,729.68c.06-.89.08-1.82,1.29-1.94a4,4,0,0,1,2.08,4,3.09,3.09,0,0,0,.08.61c-.12.74.17,1.57-.53,2.23-1.35-.14-.64-1.77-1.55-2.21A3.09,3.09,0,0,1,582.51,729.68Z"/><path class="cls-60" d="M600.71,654l.72.08c1.1-.45,1.68.38,2.37,1a2.1,2.1,0,0,1,.32,1.77c.61,2.63-1.16,4.57-2,6.78-1.38,4.07-2.27,8.33-4.42,12.13a.84.84,0,0,1-1,0c-.09-2.47-1.54-1.87-3.2-1.68-1.85.22-3.69,2.63-5.65.25-1.29-1.9,0-3.44.83-4.92,2-3.37,3.9-6.7,4.75-10.63C594.57,653.65,595.23,653.38,600.71,654Z"/><path class="cls-61" d="M613.93,677.62c3.07,0,7,3.77,7,6.92.06,2.67-1.59,3.83-4,4-2.69.18-7.42-3.08-7.5-5C609.33,680,611.09,677.65,613.93,677.62Z"/><path class="cls-62" d="M602.75,720.88c-.84,1.55-.12,2.06,1.37,2,1.38,2.54-1.53,3.12-1.88,4.77-2.63-.57,2.37-4.57-2.18-4.08C599.78,721.54,600.76,720.71,602.75,720.88Z"/><path class="cls-63" d="M585.88,731.75a4.61,4.61,0,0,1-2.07-4c0-.25.05-.49.08-.74,1.22,0,2.49-.11,2.71,1.57C586.75,729.71,588,731.12,585.88,731.75Z"/><path class="cls-64" d="M539.26,635.89l8,2.85c2.34-.19,2.62,1.47,2.85,3.18a2,2,0,0,1-1,1.71,2.52,2.52,0,0,1-1.28.08c-3.49-.65-3.65-.53-3.83,3.08a4.77,4.77,0,0,1-.39,2.24,4,4,0,0,1-2.43,1.5c-1.67.51-1.52,1.6-.9,2.83s1.37,2.28,1.15,3.7a1.72,1.72,0,0,1-1.3,1.42c-1.86-.25-1.87-1.77-2.14-3.11-.66-1.59-1.33-3.19-2-4.78q-.09-5.37-.2-10.74l.12-2C536.46,636.23,537.69,635.77,539.26,635.89Z"/><path class="cls-65" d="M565.74,646.52a8.14,8.14,0,0,1-.17-7.08,15.54,15.54,0,0,0,.78-2.2c2.21-8.78,3.39-7.58,10-4.06l.9,1.22a1.69,1.69,0,0,1-.78,1.16c-4.11,1.15-4.35,1.71-2.49,5.88a1.53,1.53,0,0,1-1.32,1.2,3.29,3.29,0,0,1-1,0C568,642,568,642,567.51,645.8a1.83,1.83,0,0,1-1,1A.7.7,0,0,1,565.74,646.52Z"/><path class="cls-66" d="M576.36,635.34l.91-.94,2,2.12c.24.46.48.91.71,1.37.77,1.55,1.24,3.07-.56,4.29a1.78,1.78,0,0,1-2.41-1C576.59,639.22,575.35,637.4,576.36,635.34Z"/><path class="cls-67" d="M545.4,696.59a12.81,12.81,0,0,0-2.83,4.74c-.62,1.36-1.54,1.42-2.66.63a1.93,1.93,0,0,1-.41-.55c0,.05-.18-.12-.18-.12a2,2,0,0,0-.21.25,2.76,2.76,0,0,1-.5.57c-2.18,1.3-3.2-.68-4.59-1.67-1.08,1-.28,2.16-.54,3.18-.3,1.2-.43,2.59-2.28,1.77l-1.92-4c-1.45-1.89-.08-3.22.89-4.64,1-.59,1.38-1.76,2.18-2.56,2.37-.76,4.83-1.25,6.78-3.06,1.37-1.27,2.92.56,4.4,0,2.41-1.41,4.43-3,4.29-6.24a1.61,1.61,0,0,1,1.25-1.78c.92-.11,1.39.78,1.55,1.52.75,3.31,1,6.58-.6,9.81C549,696.54,547,695.93,545.4,696.59Z"/><path class="cls-68" d="M531.2,705.39c1.54-.39,1.45-1.47,1.06-2.62a3.69,3.69,0,0,1,.21-3.21c.42-.73.53-1.89,1.65-1.84,1,0,1,1,1.19,1.76.48,1.74,1.36,2.84,3.36,1.87a8.17,8.17,0,0,1-.89,7.5c-3.32,1.72-4.21,1.39-5.88-2.13Z"/><path class="cls-69" d="M531.9,706.72c1.3,2,3,2.93,5.37,2a1.5,1.5,0,0,1,.06,2.1,2.41,2.41,0,0,1-.73,2.09C534.65,711.15,532,709.87,531.9,706.72Z"/><path class="cls-70" d="M531.1,697.29c0-.21,0-.41.07-.62,0-2-1.51-3.29-2.57-4.77-1.28-4.43-.11-9.11-1.43-13.53a5.45,5.45,0,0,1,5-5.4c2.6-.38,5.27-.82,7.9.09.95,1.35,3.17,1.87,2.75,4.13-1.22,1.76-3.83,1.15-5,3.09a13.93,13.93,0,0,0-2.59,7.85c0,2.44.08,5-2.61,6.46C532.61,695.77,532.36,696.81,531.1,697.29Z"/><path class="cls-71" d="M528.6,691.9c2.37.77,3.67,2.12,2.57,4.77l-1.9-2.16-.72-2C528.56,692.31,528.58,692.11,528.6,691.9Z"/><path class="cls-72" d="M586.58,706.05c1.61-.61,3.21-1.28,4.81,0-1.36,1.31-1.63,3-1.87,4.95C588.67,709.2,584.31,709.71,586.58,706.05Z"/><path class="cls-48" d="M592.65,706.05c.43,1.32.93,2.62,1.25,4a2.1,2.1,0,0,1-.59,2.42,1.49,1.49,0,0,1-1.24,0c-1-.51-.64-1.52-.75-2.37-.21-1.57,1.2-2.59,1.33-4Z"/><path class="cls-73" d="M595.29,706.07c0-2.16,1.17-1.51,1.86-.59.41.57.11,1.66.13,2.52Z"/><path class="cls-67" d="M549.53,697.89l-.84-1.26c1.75-2.78,1.25-6.27,2.89-9.08,2.91.07,2.13,2.6,2.81,4.17a16.46,16.46,0,0,1,.12,2.33c-.07,1.56.35,3.34-1.79,4C551.63,698.57,550.6,697.83,549.53,697.89Z"/><path class="cls-74" d="M559.52,706.69l-1.28.72-1.44-.72c0-.44,0-.88,0-1.32C558.64,703.83,558.94,705.56,559.52,706.69Z"/><path class="cls-75" d="M551.51,687.8c-.83,3-.24,6.41-2.82,8.83l-3.29,0c4.85-2.08,6.2-6.6,3.49-12.78,1.81,5.38-2.1,6.89-5.51,8.74l-.43-.34c-1.06-2,0-4,.46-5.83.5-2.28,1.09-4.57,1.78-6.82a3.17,3.17,0,0,1,2.92-2.38c2.22.28,2.29,2.29,3,3.77C551.83,683.2,553.37,685.4,551.51,687.8Z"/><path class="cls-68" d="M540,701.31a2.12,2.12,0,0,0,2.55,0l-2.7,9.32-1.21.08C537.59,707.37,538.36,704.28,540,701.31Z"/><path class="cls-76" d="M540,701.31a40.58,40.58,0,0,0-1.36,9.42l-1.33.1-.06-2.1c.47-2.46.93-4.92,1.4-7.38h0a.91.91,0,0,1,1.34-.05Z"/><path class="cls-77" d="M556.09,696.43c-1-1.42-.48-3-.47-4.49,1.85-2.19,3.46-4.7,6.75-4.9a4.07,4.07,0,0,1,2.6,1.45,6.1,6.1,0,0,1,.87,1.75c-.26,1.83.76,3,2,4.15a.86.86,0,0,1-.18.84c-.23,1.32,0,3.09-.8,3.86-1.44,1.45-2.38,3.62-4.68,4.09C561.2,700,560.53,696.5,556.09,696.43Z"/><path class="cls-78" d="M556.09,696.43c2.2-1.94,3.49-1.35,4.92.93,1.22,2,2.44,3.52,1.2,5.82-3.39,1.84-4.6-.25-5.44-3C556.54,698.92,556.32,697.67,556.09,696.43Z"/><path class="cls-79" d="M577.08,671.62c-.12-2.75,1.25-5.19,1.61-7.86s1.74-5.15-1-7.37c-.71-.55-.42-1.52.87-1.25a5.77,5.77,0,0,1,1.94.5c3.22,2,5.86,2.21,7.34-2,.11-.32.73-.74,1-.67,1.3.34,1,1.57,1.2,2.49-.41,2.36-1.44,4.76.89,6.84.61.55.3,2-.41,1.92-4-.55-3.38,3-4.66,4.89-.25.36-.44.77-.66,1.16C582.53,671,580.06,672.8,577.08,671.62Z"/><path class="cls-80" d="M577.08,671.62c2.65-.76,5.1-2.61,8.09-1.38-.44,1.14-.87,2.28-1.3,3.41-2,3.12-4,6.28-4.78,10-.91,1.16-1.24,3.41-3.25,2.75-2.32-.77-2.78-3-2.63-5.23a3.91,3.91,0,0,1,1.22-2.8Z"/><path class="cls-81" d="M545.46,654.05c-.48-2.73-3.15-3.18-4.83-4.67l2.82-.71c1.06-.51,1.8.27,2.63.66,1.59.84,1.87-.22,2-1.41s-.13-2.58.1-3.87a2.18,2.18,0,0,1,.55-.76l.69-1.33c2.08,2.16,1.45,4.84,1.43,7.4a.93.93,0,0,0-.11.56c-.56,1-.14,2.21-.55,3.28C549.26,655.6,547.52,655.93,545.46,654.05Z"/><path class="cls-82" d="M560.26,650.69c2.88,1.76,6.25,2,9.36,3a7.14,7.14,0,0,1,4.71,3.76c-1,.7-1,2.5-2.76,2.19-4.74-4-5.38-4.06-10.79-.82a5.16,5.16,0,0,1-2.8,1,21.78,21.78,0,0,1-3.13-.09,5.47,5.47,0,0,1-3.46-2.66c-.58-1.23-1.2-2.45,0-3.69C554.5,649.19,554.6,649.16,560.26,650.69Z"/><path class="cls-83" d="M573.11,644.72a9.89,9.89,0,0,1,1.33-.08c1.58.12,3.9-.55,4,1.81.12,2.53-2.21,2.68-4.14,2.8-3,.2-5.78-.38-7.95-2.69l.8-.65A24.63,24.63,0,0,1,573.11,644.72Z"/><path class="cls-84" d="M573.05,642.67l-.77-.65,1.5-.8c1.34-.07,2.76.26,3.93-.74.12.79.46,1.35,1.35,1.36C577.29,643.83,575,642.24,573.05,642.67Z"/><path class="cls-85" d="M532.6,694.59c.83-2,1.63-4,1.31-6.12-.53-3.6,1.19-6.43,2.86-9.33,1.39-2.4,3.83-1.72,5.92-2.11s2.89.78,3,2.66c-.44,3.21-2.4,6-2.73,9.24-.12,1.21-.64,2.4.26,3.52l.12.1c-3-1.11-5.1.39-7.27,2.28C535.49,695.37,533.8,694.7,532.6,694.59Z"/><path class="cls-68" d="M540,701.3l-1.34.05c.37-1.2-.94-3.54,1-3.42C541.39,698,539.61,700.14,540,701.3Z"/><path class="cls-86" d="M545.38,679.75a8.14,8.14,0,0,0-2.69-2.72c-.54-1.39-2.72-1.49-2.67-3.36.53-.06,1.25.12,1.43-.51s-.51-.84-1-.86c-1.63,0-3.36.32-4.42-1.44.51-3.73,2.43-4.59,7.4-3.31,1.76-1.31,3.15-.17,4.55.73,3,1.94,4.27,5.06,5.56,8.16.54,1.06.94,2.19-.33,2.95s-2.14.21-3-.74c-.56-.66-1-1.57-2.17-.93l-2,2C545.86,680.15,545.64,680.17,545.38,679.75Z"/><path class="cls-87" d="M567.6,674.94c-4.67,1.08-8.16-1.66-11.54-4-2.9-2-5.72-4.52-5.23-8.76.11-1.59,1.67-1.06,2.45-1.67,2.78-.22,5.52-1,8.35-.69,3.39.32,6.83,1.49,10.16-.34.69-.86,1-2.28,2.54-2,.24,5.1-.24,10.06-2.87,14.55-1.63.36-.3-2-1.76-1.74-.93.4-1-.46-1.33-.73C569.43,671.39,569.06,673.24,567.6,674.94Z"/><path class="cls-88" d="M545.38,679.75l.64-.07-2.76,12.78c-2.08-.89-1.14-2.62-1-4C542.44,685.26,544.61,682.75,545.38,679.75Z"/><path class="cls-57" d="M565,690.5q1.34,2,2.68,4.07C565.11,694.32,564.32,692.89,565,690.5Z"/><path class="cls-61" d="M556.19,662.81c1.23,0,2.47,0,3.7.05,1.44.07,3.23-.13,3.63,1.69s.45,3.66-1.06,5c-1.34,1.22-2.91.94-4.43.27a8.22,8.22,0,0,1-3.87-3.59C552.75,663.89,555.53,664,556.19,662.81Z"/></g><g id="Guitar_Top" data-name="Guitar Top"><path class="cls-89" d="M483.52,847.5c1.26-7.22,2.63-14.73,6.92-20.67,8.5-11.75,25.05-13.47,39.54-13.9,19.76-.59,39.4,2.15,59.13,1.47,26.88-.93,53.15-7.32,79.08-14,12.63-3.24,24.55-6.78,37.61-7.18,15.65-.47,31.25,1.12,46.69,3.58,7.68,1.22,17.82.27,24.45,5,6.24,4.41,7.36,12.7,10.3,19.24a45.76,45.76,0,0,1,2.82,7.41c1.52,6,.85,12.81,1.05,19,.13,3.81.93,8.26.39,12-.78,5.49-.68,11.87-3.71,16.63l-6,9.43a27.49,27.49,0,0,1-3,4.11C768.14,901.08,749,905,734.14,907.11a159.87,159.87,0,0,1-32.36,1.08c-19.69-1.27-39.33-7-59-9.77-17.25-2.44-34.15-.64-51.4.35q-14,.81-28.07,1c-12.45.17-23.62,1.06-35.68-3.15-10.4-3.62-23.22-10.53-29.34-20a12.11,12.11,0,0,1,3.24-1.08c8.91-2.22,29.54,4,32.66-7.58,2.16-8-3.77-15.25-9.58-20a6,6,0,0,0-2.06-1.22,6.88,6.88,0,0,0-2.48-.08C509.33,847.62,496.5,848.5,483.52,847.5Z"/><g id="Sound_Hole" data-name="Sound Hole"><path class="cls-90" d="M613.11,837c-2.71-2-4.9-3.35-8.41-3.46a137.51,137.51,0,0,0-26.52,1.27,49.05,49.05,0,0,0-10.65,2.54c-2.8,1.15-4.94,3.17-7.56,4.71a14.12,14.12,0,0,0-2.14,1.45,14.31,14.31,0,0,0-2.55,3.18c-3.18,4.82-3.42,10.16,0,15,2.95,4.27,7.27,8.58,12.16,10.52,6,2.38,10.77-1.1,15.91-4a4.93,4.93,0,0,0,2.77-4.63c0,.54-12.07,1.17-13,1.14a28.36,28.36,0,0,1-14.4-4.29l-1.72-3.71c.85-6.09,6.4-8,11.8-9.34q22.23-5.65,44.75-10.05C613.57,837.41,613.42,837.26,613.11,837Z"/></g><path class="cls-2" d="M291.11,856.05a2.61,2.61,0,0,1,.43-.35c2-1.35,6.12-.55,8.41-.57,13.07-.14,26.14-.5,39.2-1,26.13-1,52.23-2.46,78.34-3.82,25.85-1.34,51.72-2.56,77.61-3,7.83-.12,15.66-.19,23.49-.16a16.57,16.57,0,0,1,4.34.41c3.17.89,5.48,3.59,7.36,6.3s3.68,5.9,4.13,9.29-.61,7.15-3.37,9.18c-2.15,1.58-4.94,1.9-7.6,2.14-18.25,1.62-36.54,1.63-54.85,1.65l-168.06.15c-1.1,0-4.18-5.88-4.77-6.86a64.84,64.84,0,0,1-4-7.74C291.08,860,289.61,857.56,291.11,856.05Z"/><path class="cls-91" d="M169.5,830.5l9,12,12,16,1,1c.64.64,4.34.42,5.27.57,2.8.44,5.59.92,8.37,1.42,25.19,4.59,50.58,8.12,76,11.09,3.39.39,7.28,1.25,10.67.93-.24-2.46-1.93-4.6-3.44-6.43-2-2.4-4.47-3.49-4.46-6.93,0-1.77.61-4,.4-5.6-.92-.09-1.87,0-2.8,0l-6-3-6-6-43-9-52-8h-4Z"/><path class="cls-92" d="M284.51,854.5a40.43,40.43,0,0,0-.87,4.31c-.34,2.51.63,3.94,2.29,5.85a58.64,58.64,0,0,1,8.38,12.69c.89,1.83,2.63,3.26,4.54,1.57a7.36,7.36,0,0,0,1.6-2.41c-3.59-4.45-7.29-8.74-9.44-14.12-.07-.19-1-7.89-.51-7.89Z"/></g><g id="Guitar_Back" data-name="Guitar Back"><path class="cls-91" d="M481.5,844.5c2-18.28,4-36.57,7.38-54.67,1.69-9.1,3-17.49,10.36-23.8a48.6,48.6,0,0,1,17.6-9.16,45.4,45.4,0,0,1,4.63-1c12.46-2.13,25.27-1.35,37.86-1.25q19.18.17,38.37.46c20.81.28,40.31-5.82,60.16-11.5,12.93-3.71,25.53-6.39,39-7,4.94-.25,9.94.14,14.81-.58.75-.11,8.56-1.88,8.78-1.46l28,53c-.19-.37-7.21,3.65-7.74,3.9-5.92,2.81-12,2-18.35,1.9a179.72,179.72,0,0,0-21.52.52,183.22,183.22,0,0,0-25.12,4.54c-8.4,2.06-16.73,5.46-25.21,7.06-16.3,3.06-32.76,6.45-49.37,7.84-22.05,1.86-44-1.23-66.13-.24-14.08.64-33.94.4-43.91,12.27a31.56,31.56,0,0,0-5.72,11.63c-.24.84-3.48,10.83-3.4,10.93C481.28,846.85,481.5,845.83,481.5,844.5Z"/><path class="cls-91" d="M486.11,798.81c-.27-.29-.87-.3-2.14-.3-3.31,0-6.9-.32-10.11.61a8.39,8.39,0,0,0-4,2.24,11.57,11.57,0,0,0-1.61,2.57c-4.08,8.11-9.41,14-16.29,19.86-5.46,4.65-11.21,10.48-17.53,13.91a40,40,0,0,1-7.46,2.84,174.69,174.69,0,0,1-23.74,5.65c-7.86,1.25-15.79,1.11-23.71,1.23-8.33.12-16.71,1-25,1.3-22.29.94-44.62.77-66.93.79a8.38,8.38,0,0,1-1.94-.15,7.92,7.92,0,0,1-2.46-1.2c-4.7-3-8.93-7.18-14-9.5-4.37-2-9.22-2.53-13.91-3.27-5.17-.82-10.27-2.07-15.39-3.17q-22.65-4.9-45.31-9.72c-6-1.25-12-2-18-3-.33,0-2.77,3.23-3.14,3.67-.76.92-4.33,5.14-3.57,6.32.53.77,4.76,1,5.59,1.16l9.83,1.85q21.49,4.05,43.08,7.69,10.78,1.83,21.58,3.57a105.39,105.39,0,0,1,21.94,6.29c3,1.18,7.49,4.45,10.69,4.45,34.57,0,69.13-1.57,103.67-2.73,27.16,0,54.26-2.24,81.33-4.27,4.6-.35,9.36,0,14,0,.89-8.29,1.92-16.63,2.51-25q.63-6.24,1.27-12.47C485.48,808.07,487.51,800.34,486.11,798.81Z"/></g><g id="Tuning_Pegs" data-name="Tuning Pegs"><path class="cls-93" d="M241.65,814.72a10.85,10.85,0,0,1,6.32,6.91c1.52,4.44-.36,7.58-5,8.62-2.21-.83-4.16.88-6.32.62a23.71,23.71,0,0,1-5.82-.63h0l-.28-.45a1.33,1.33,0,0,1,.54-.89c2.11-.31,2.92-1.19,3.17-3.65.34-3.26,2.27-6.24,3.73-9.23A2.5,2.5,0,0,1,241.65,814.72Z"/><path class="cls-94" d="M202.5,818.78c.09-1.52.63-2,2.37-1.82,2.36.32,4.92.9,7.08-.89.62-.17.85,0,.68.67,2.36,1.38,4.48,3.29,7.43,3.39a2.19,2.19,0,0,1,.15,2,4.29,4.29,0,0,1-2.67,1.59c-2.95.31-6-.27-8.83,1.25a2.09,2.09,0,0,1-3.13-1.52C205.31,821.32,203.71,820.23,202.5,818.78Z"/><path class="cls-95" d="M241.65,814.72A3.2,3.2,0,0,0,239,817c-1.13,2.88-2.61,5.71-3.15,8.71-.58,3.17-2.1,4.14-5,3.81-2.1-.8-1-1.89-.28-2.95s-.19-1.81-.64-2.64c-.56-1-1.18-2.06-.28-3.22a17,17,0,0,0,5.67-5.32c.83-1.32,1.9-2.19,3.58-1.36Z"/><path class="cls-96" d="M258.5,831l1.35-.06a2.54,2.54,0,0,1,3.46.22c1.38,1.8,1.45,3.48-.46,5a6,6,0,0,1-4.31-.48l-3.39-.65c-.17-.18-.22-.35-.14-.5s.15-.22.21-.22C257.33,834.17,258.05,832.71,258.5,831Z"/><path class="cls-97" d="M236.93,829.58c2.19-1.26,4.29-1.77,6.07.67-1.85,2.06.94,1.75,1.35,2.66l-4-.62C239.1,831.48,237.75,830.86,236.93,829.58Z"/><path class="cls-98" d="M212.63,816.74l-.68-.67c-.37-1.11-.69-2.23,1-2.49a1.53,1.53,0,0,1,1.86,1C215.21,816.35,213.84,816.51,212.63,816.74Z"/><path class="cls-99" d="M206.59,814.94a1.16,1.16,0,0,1-1-1.42,1.19,1.19,0,0,1,1.34-1.11c.82.06,1.08.64.95,1.37A1.2,1.2,0,0,1,206.59,814.94Z"/><path class="cls-100" d="M219.39,821.5c.22-.46.45-.91.67-1.37.66-.47,1.25-1.94,2.05-1.13,1.28,1.29.14,2.64-.71,3.82A2.71,2.71,0,0,1,219.39,821.5Z"/><path class="cls-101" d="M219.39,821.5a2.26,2.26,0,0,1,2,1.32c-.22.23-.44.46-.67.68l-1.42.66c-.62-.31-1.56.28-2-.67,0-.22,0-.44,0-.66Z"/><path class="cls-102" d="M280.07,845.25C277.5,844,276,841,272.7,841c-.91.08-1.62-.06-1.39-1.25,1.75-.07,2.36-1.27,3-2.68a4.17,4.17,0,0,1,6.74-1c1.38,1.32.54,2.45-.34,3.5C279.24,841.3,278.46,843.12,280.07,845.25Z"/><path class="cls-103" d="M262.57,831.6l-2.72-.69c.88-2.06,1.75-4.13,2.63-6.19,0,.22.11.45.17.68a5,5,0,0,0,5-3.3c.7-1.85,1.86-2.52,3.74-2,1.22,1.51,1,2.89-.08,4.46-1.25,1.77-2.22,3.74-3.32,5.63C265.81,829.33,264.76,832.69,262.57,831.6Z"/><path class="cls-94" d="M271.35,820.13c-1.71.48-1.85,2-2.27,3.35-1.07,3.53-3.2,4.14-6.43,1.92.2-.52.42-1,.59-1.56C265,818.19,265.89,817.78,271.35,820.13Z"/><path class="cls-104" d="M271.31,839.72,272.7,841c2.63,1.69,4.42,4.27,6.61,6.62-2.55-.4-5.18-.82-7.07-2.8-1.61-1.68-2.7-3.84-4.88-5-.57-.3-.2-1,0-1.54Z"/><path class="cls-105" d="M262.57,831.6c.53-.69,1-1.42,1.59-2.05,1.57-1.64,2.94-1.87,3.79.67-.71,1.56-.91,3.34-2,4.72-.62-.52-1-.52-1.39.34s-1.15,1.21-2,.34A4.39,4.39,0,0,0,262.57,831.6Z"/><path class="cls-106" d="M262.55,835.62c.89-.29,1.2-1.16,1.8-1.72,1.67-1.54,1.5,0,1.57,1l-.69,2.1-3.34.08a5,5,0,0,1-3.35-1.49Z"/><path class="cls-107" d="M261.9,862h.67a1.78,1.78,0,0,1,1.19,1.58c.28.43.79.45,1.19.68s.61.63.33,1.1l1.35,3.37c-2.11,1.58-4.42,1.26-6.76.69a13.38,13.38,0,0,1-4.69-4.19C255.33,861.12,256.75,860.44,261.9,862Z"/><path class="cls-108" d="M257.84,871.43l-.77.06c-1,.61-2,.13-2.93-.2a1.85,1.85,0,0,1-.58-.84c-1-2.83.44-4.28,2.94-5.11a5.54,5.54,0,0,1,3.37,4.06A5.15,5.15,0,0,1,257.84,871.43Z"/><path class="cls-109" d="M212.8,864.3c-2.7-.56-4.77,0-6.25,2.4-2.25.4-3.28-1-4.14-2.72l.1,0c1-1.22,2-2-.62-2.92-2.08-.75-3.52-3-6.26-2.88-1,0-.67-1.43-.56-2.3a18,18,0,0,0,8.59-1.53c1-.4,2.38.09,3.58.17,2.17-1.68,4-1.82,5.27,1.08.56,1.31,2.24,2,2.13,3.67-1.67,4,.62,2-.08,5.17"/><path class="cls-110" d="M189.94,834.25a13,13,0,0,1,2,.54,1.24,1.24,0,0,0,.87,0c4.25-1.58,6.59-.77,8.57,4.77a9.7,9.7,0,0,1,.45,3.61c.31,3.13-1.9,2.94-3.91,2.94h-.11c-.33,0-.66-.05-1-.09a4.22,4.22,0,0,1-3.13-3.14,5.4,5.4,0,0,0-2.37-3,1.24,1.24,0,0,1-.43-.6,7.49,7.49,0,0,0-2-3A1.22,1.22,0,0,1,189.94,834.25Z"/><path class="cls-111" d="M191,839.7c4.75-1.25,4.24,3.38,6.05,5.41-.87,1-1.89.7-2.9.34a5.32,5.32,0,0,0-1.13,0,1,1,0,0,1-.68-.34C190.79,843.57,191,841.6,191,839.7Z"/><path class="cls-112" d="M192.37,845.08H193a3.23,3.23,0,0,1,4.12,0h0c1.07,1.72,0,2-.94,2.31a3,3,0,0,0-1.36.92l-.36.41C193,848,193,846.37,192.37,845.08Z"/><path class="cls-113" d="M194.92,848.91c.12,1.12-.44,1.32-1.21,1.24s-1.7-.3-1.81-1.17.95-1.15,1.63-1.32C194.63,847.37,194.65,848.41,194.92,848.91Z"/><path class="cls-114" d="M231,860.59l3.4-1.61a1.87,1.87,0,0,1,2.2-.58,1.89,1.89,0,0,1,1,.77,2,2,0,0,1-.61,2.91c-2.8,2.2-2.53,5.65-3.66,8.54a6.51,6.51,0,0,1,.3.88c-2.63,1.27-4.84.34-4.36-2.08a2.5,2.5,0,0,0-.25-2,1.94,1.94,0,0,1,.07-2.47,1.67,1.67,0,0,0,.29-1.75A2,2,0,0,1,230,861,1.78,1.78,0,0,1,231,860.59Z"/><path class="cls-115" d="M202.41,864c2.11-.21,2.4,2.35,4.14,2.72C204.13,867.37,202.38,867,202.41,864Z"/><path class="cls-116" d="M236.93,829.58c1.95-.12,2.8,1.13,3.37,2.71-3.16-.6-6.41-.82-9.44-2C232.89,830.07,235,830.69,236.93,829.58Z"/><path class="cls-117" d="M229.49,825.52c-.16-1.4-1.86-3.07.66-4,.24,2.17,3.21,3.42,2.06,6.07A5.47,5.47,0,0,1,229.49,825.52Z"/><path class="cls-108" d="M262.57,864l2,.67a7,7,0,0,1-1.26,1.07c-1,.5-2.09.94-3.15.12a1,1,0,0,1-.27-.86C260.45,863.88,261.77,864.64,262.57,864Z"/><path class="cls-111" d="M201.16,843.1l1.34,0c.66,3.71,0,4.43-3.71,4.59-1.2.05-2.38.6-3.61.22.69-.88,1.66-1.57,1.9-2.76C198.73,845,200.35,844.87,201.16,843.1Z"/><path class="cls-118" d="M230.86,860.61c.19.79,1,1.75.14,2.33s-1.42-.65-2.16-1C229.13,861,228.86,859.1,230.86,860.61Z"/><path class="cls-112" d="M205,857.67c-.11.47-.37.89-.88.69a1.84,1.84,0,0,1-1.2-1.82.76.76,0,0,1,1.11-.78A1.68,1.68,0,0,1,205,857.67Z"/><path class="cls-119" d="M213.24,861a1.06,1.06,0,0,1-1.13.95,1.14,1.14,0,0,1-1.16-1.28.84.84,0,0,1,1.05-.92A1.3,1.3,0,0,1,213.24,861Z"/><path class="cls-120" d="M194.42,844.4l-1.46.67c-.18-1.24-1.73-2.2-.7-3.83C193.8,841.77,193.76,843.35,194.42,844.4Z"/><path class="cls-121" d="M236.93,860a5,5,0,0,0,2.58,2.91,1.28,1.28,0,0,1-.4,2.31c-3.26.9-4.87,2.71-5.69,6.13-1.23-.68-1.18-1.71-.86-2.87.21-.73.67-1.62.44-2.21-1.14-2.92.07-4.36,2.77-5.15C236.23,860.94,236.55,860.33,236.93,860Z"/><path class="cls-107" d="M253.9,848h.67a1.78,1.78,0,0,1,1.19,1.58c.28.43.79.45,1.19.68s.61.63.33,1.1l1.35,3.37c-2.11,1.58-4.42,1.26-6.76.69a13.38,13.38,0,0,1-4.69-4.19C247.33,847.12,248.75,846.44,253.9,848Z"/><path class="cls-108" d="M249.84,857.43l-.77.06c-1,.61-2,.13-2.93-.2a1.85,1.85,0,0,1-.58-.84c-1-2.83.44-4.28,2.94-5.11a5.54,5.54,0,0,1,3.37,4.06A5.15,5.15,0,0,1,249.84,857.43Z"/><path class="cls-108" d="M254.57,850l2,.67a7,7,0,0,1-1.26,1.07c-1,.5-2.09.94-3.15.12a1,1,0,0,1-.27-.86C252.45,849.88,253.77,850.64,254.57,850Z"/><path class="cls-109" d="M230.19,852.3c-2.14-.56-3.79,0-5,2.4-1.78.4-2.6-1-3.28-2.72l.08,0c.78-1.22,1.6-2-.5-2.92-1.65-.75-2.79-3-5-2.88-.78,0-.53-1.43-.44-2.3a11.77,11.77,0,0,0,6.82-1.53c.81-.4,1.89.09,2.84.17,1.73-1.68,3.2-1.82,4.19,1.08.44,1.31,1.77,2,1.69,3.67-1.32,4,.49,2-.07,5.17"/><path class="cls-112" d="M222,846.67c-.11.47-.37.89-.88.69a1.84,1.84,0,0,1-1.2-1.82.76.76,0,0,1,1.11-.78A1.68,1.68,0,0,1,222,846.67Z"/><path class="cls-112" d="M225,852.67c-.11.47-.37.89-.88.69a1.84,1.84,0,0,1-1.2-1.82.76.76,0,0,1,1.11-.78A1.68,1.68,0,0,1,225,852.67Z"/></g><g id="Shirt_Sleeve_Arm" data-name="Shirt Sleeve/Arm"><path class="cls-122" d="M662.62,600.71c7-4.37,14.94-8.87,20.83-14.68a64.82,64.82,0,0,0,14.29-20.71c2.42-5.69,2.55-17.54,7.76-20.78,2.8-1.75,9.32,9,9.82,10.79,1.91,6.71,0,10.66,5.65,16,19.24,18.32,30.16,48.31,36.63,73.47,1.85,7.19,6.83,10.43,9.5,16.87.85,2,.9,4.3,1.14,6.49.75,7.13,4.45,13,8.14,18.89,4.15,6.67,5.77,13.42,8.56,20.7,2.21,5.77,5.65,11,8.67,16.34a186.85,186.85,0,0,1,12.75,29.49c7.3,20.76,12.84,40.28,14.88,62.36,2.84,30.82-29.64,44-54.08,52.52-7.89,2.76-14.53,12.39-23.22,11.81-3.64-.25-7.08-1.78-10.29-3.53-14.83-8.09-34.42-27.8-34.15-46a10.43,10.43,0,0,1,1.63-6c3-4.11,13.6-6.87,18-10.27,7-5.51,16.21-8.13,22.93-13.9-2.64-3.71-5.29-6.42-7.19-10.82-2.83-6.54-7.59-11.84-11-18-2.21-4-1.2-8.64-2.82-12.74-1.49-3.78-5.31-5.82-7.22-9.27-2.53-4.57-2-9.76-3.29-14.66-2.67-9.93-13.07-15.73-17.92-24.8-3.51-6.56-9.66-7.65-13.82-13.8-5.21-7.71-10.66-16.3-9.63-25.56.66-6,4.1-11.86,4-17.75-.07-6.56-3.78-13.08-5.52-19.6-1.28-4.83,1-8.81.82-13.76-.3-6.64-3.31-13.05-6.09-19Z"/><path class="cls-123" d="M697.49,833.47c-5.89,1.43-12,1.47-17.9,2.56-6.36,1.17-12.71,2.36-19.09,3.43-3.57.6-7.17,1.07-10.74,1.7s-7.25,1.39-10.92,1c-4.21-.41-10.07-.53-13.47-3.36l-2-1.68a2.54,2.54,0,0,0-1-.58,2.75,2.75,0,0,0-.81,0,55.79,55.79,0,0,0-11.42,1.65l-12,2.6Q586,843.41,574,846c-4.66,1-9.88,1.54-13.56,4.88a16,16,0,0,0-2.08,2.78c-.79,1.11-2,2.41-1.44,3.89.47,1.27,1.2,2.86,2.54,3.4a72.75,72.75,0,0,0,12.07,3.59h15l-1,2-4,3a64,64,0,0,1-9,3.64,6.45,6.45,0,0,1-2.85.38,13.23,13.23,0,0,0-.22,4.09,15.39,15.39,0,0,0,1.75,6,2.53,2.53,0,0,0,.42.73,2.26,2.26,0,0,0,.63.47c2.9,1.7,6.06,2.26,9.29,3,.87.19,2.16,0,2.87.66a2.67,2.67,0,0,1,.65,1.64,24.47,24.47,0,0,0,1.55,5.22c2.53,6.23,7.54,4.45,13,4.46a19.93,19.93,0,0,1,4.36.38c1.7.38,3.3,1.13,5,1.4,4.28.68,4.87-2.64,8-4.33,4.71-2.58,10.14,1,14.91-1.08,1.84-.8,3.2-2.39,4.72-3.71,6.38-5.56,16.81-6.63,24.85-7.74,9.67-1.34,19.46-1.78,29.12-3.24,12.79-1.94,26.59-2.66,38.85-6.87-6.06-6.29-13.58-11.27-19-18.13-5.73-7.25-8.44-14.86-11-23.53C698.72,833.15,698.11,833.32,697.49,833.47Z"/><path class="cls-122" d="M543.46,513.83c-1.33-.64-7.39,2-8.89,2.39a65.57,65.57,0,0,0-11.67,4.29,58.58,58.58,0,0,0-19.39,15.37c-6.75,8.27-10.53,18.22-12,28.72-.71,5-.4,10-1,15-.7,5.68-3.24,11-3.79,16.7-.26,2.79-.05,5.6-.15,8.4-.2,5.5-2.07,10.67-3.6,15.9s-2.1,10.66-2.83,16.15c-.35,2.64-.7,5.29-1.14,7.92a10,10,0,0,1-1.7,4.76,5.83,5.83,0,0,1-4.75,2l-.06,5.89c-2.37,1.55-3.72,4.23-5,6.78a280.07,280.07,0,0,0-18,47.3c-.81,2.89-3.13,7-3,10,.19,4.48,3.65,4.28,7.7,5.64,8.41,2.81,17.41,6,26,9.16q7.19,2.64,14.33,5.38c4.91,1.87,5.61,2.63,8-2.11,4-8,8-16.15,12.34-24.13a43.9,43.9,0,0,0,3.7-8.11c2.81-9.29,1.82-18.82.87-28.24-.6-5.94,3.14-11.59,7.13-15.56a21.75,21.75,0,0,1-3.48-8.86c-.33-2.2-.32-4.43-.56-6.64-1-9.79-7.84-17.52-8-27.53-.07-5.24-1.82-7.08-5-10.94-1.88-3.76,4.37-8.24,5.61-12.23,1.06-3.4.84-7.21,2.59-10.32s5.54-5.19,8.26-7.55c4.71-4.08,9-8.13,14.54-10.9,1.77-4.72,3.12-8.39,6.6-12.13,5.73-6.17,0-13.21-1.47-20A101.42,101.42,0,0,1,543.46,513.83Z"/><path class="cls-123" d="M449.55,726.52c-10.49,27.52-13.92,59-31.28,83.49a83.67,83.67,0,0,1-5.89,7.39,88,88,0,0,0-6.68,7.9,66.83,66.83,0,0,0-5.19,9.42c-1.58,3.28-5.84,7.85-4.92,11.73,2.84.27,9.06,1.23,10.77-1.8.34,5.65-4.82,13.16-.6,18.14a4,4,0,0,0,1.46,1,23.17,23.17,0,0,0,4.41,1.5,6,6,0,0,0,1.84.19c8.8-.89,10.68-17.06,13.38-22.9a6.28,6.28,0,0,1,1.07-1.75,6.76,6.76,0,0,1,2.13-1.28c7.74-3.49,14-8.87,20-14.81,4.71-4.69,14.25-11.11,15.73-17.64,4.28-18.91,16.1-37.92,25.1-54.91,1.79-3.39,3.66-6.95,3.59-10.78-12.14-4.13-24.17-8.6-36.23-13-2.75-1-5.63-2.14-8.6-2.1Z"/><path class="cls-123" d="M399.5,876.5c.83.83,2.24,2.93,3.43,3a8.06,8.06,0,0,0,3.06-.22,7.76,7.76,0,0,0,3.35-2.73,33.15,33.15,0,0,0-5.46,0h-3.05C400.65,876.5,399.64,876.64,399.5,876.5Z"/><path class="cls-123" d="M411.55,876.52a.74.74,0,0,0-.05.33c0,1.48-.37,3.14.67,4.32s2.41,3.08,3.81,3.45,3.88,1.4,5.43.57L423.6,884c1.43-.77,1.62-2.08,1.83-3.59.13-.91.54-3.58-.23-4.21-1-.8-1.86-1.73-3.21-1.73l-4.92,0a9.31,9.31,0,0,0-5.21,1.71A.74.74,0,0,0,411.55,876.52Z"/><path class="cls-123" d="M427.57,876.54a.51.51,0,0,0-.08.17c-.24.83.71,2.72,1,3.53.88,2.52,1.85,4.38,4.23,5.79a3.12,3.12,0,0,0,.81.37,3.39,3.39,0,0,0,.78.09,15.45,15.45,0,0,0,4.59-.51,3.72,3.72,0,0,0,1.75-.73,12.45,12.45,0,0,0,1.5-2.21,3.36,3.36,0,0,0,.27-.49,2.46,2.46,0,0,0,.09-.81c0-1.76,0-3.51,0-5.27,0-.81.16-1.67-.37-2.15-1.24-1.1-3.82-1.65-5.4-1.76-1.2-.08-2.73.77-3.83,1.25s-2,.84-2.95,1.32C429.41,875.4,428,875.94,427.57,876.54Z"/><path class="cls-123" d="M442.57,878.51a.41.41,0,0,0,.12.17A29.75,29.75,0,0,0,445,881a5.86,5.86,0,0,0,4.37,1.5,9.21,9.21,0,0,0,4-2c1.63-1.36,1.1-2.47,1.11-4.37a2.32,2.32,0,0,0,0-.46,1.94,1.94,0,0,0-.65-.88,1.37,1.37,0,0,0-.51-.35,1.42,1.42,0,0,0-.58-.05c-1.83.09-3.65.1-5.48.1a4,4,0,0,0-.69,0,3.39,3.39,0,0,0-.87.33,5.48,5.48,0,0,0-3.09,3.38A.46.46,0,0,0,442.57,878.51Z"/></g><g id="Layer_13" data-name="Layer 13"><path class="cls-124" d="M409.22,854.11a3.45,3.45,0,0,1,2.22-.5,6.22,6.22,0,0,1,4.19,2.17c1.09,1.24,3,3.23,1.86,4.92-.5.77-.82,1.83-1.72,2.24a3.4,3.4,0,0,1-1.27.22,19.42,19.42,0,0,1-5-.75c-1-.22-2.57-.39-3-1.57a3.2,3.2,0,0,1,.15-2C407.17,857.09,407.76,855,409.22,854.11Z"/><path class="cls-124" d="M440.5,880.5c0-1.27.47-2.85-.54-3.84-1.22-1.2-4.35-1.18-5.79-.62-.68.27-2.9.73-3.3,1.3-.52.77.32,2.24.63,3.16"/><path class="cls-124" d="M423.46,880.49c.13-1,.13-2.38-.83-2.83a2.61,2.61,0,0,0-1-.16l-3.43,0c-1.62,0-3.4,0-4.65,1,0,.67,0,1.33,0,2"/><path class="cls-124" d="M445.5,877.5c1-1.56,3.48-1.06,5.07-1,.75,0,1.7.26,1.84,1"/><path class="cls-125" d="M564.44,850.82a1.07,1.07,0,0,0-.26.09c-1.66.8-3.52,1.14-4.13,3.92a6.34,6.34,0,0,0-.39,2.2c.31,1.61,3,3.47,4,3.47a13.59,13.59,0,0,0,3.25-.06c1.44-.35,2-2.21,2-4.12,0-1.5.1-3.59-.54-4.87C567.59,849.78,565.63,850.51,564.44,850.82Z"/></g><g id="Shirt_Collar" data-name="Shirt Collar"><path class="cls-122" d="M705.5,544.5c-6,0-11.84,3-18,3-.67,0-3.28,6.57-3.68,7.36q-3,6-6,12.08a20.15,20.15,0,0,1-1.4,2.43c-4.53,6.54-11.91,11.09-18.74,14.93a84.69,84.69,0,0,1-23,8.74c-7.1,1.58-13.84-.56-20.8-1.78-5.36-.94-12.36-1-17.19,1.89-1.15.71-2.19,1.58-3.34,2.3a21.12,21.12,0,0,1-5.08,2.35,1.26,1.26,0,0,0-.27,2.31l0,0c2.08,1.21,4.21,2.33,6.4,3.34a78.67,78.67,0,0,0,13.15,4.72c27.65,7.2,56.88-3.34,76.8-23a74.62,74.62,0,0,0,13-16.4,58,58,0,0,0,4.79-12.9C702.41,554.85,704.55,544.5,705.5,544.5Z"/></g><g id="Shirt_Wrinkles" data-name="Shirt Wrinkles"><path class="cls-126" d="M697.86,546c.9,4.31-.36,10.78-2,14.85a66.92,66.92,0,0,1-10.79,18.41c-5,5.9-11.43,9.73-18.21,13.35a130.39,130.39,0,0,1-24.26,10.45c-8.6,2.54-17.92,2.9-26.83,2.27a68.67,68.67,0,0,1-14.26-2.86"/><path class="cls-127" d="M705.5,554.5c.35,3.53,1.37,7.57.82,11.08-.63,4-2.81,8.16-4.19,11.94l-6.24,17.13c-3.46,9.49-9.49,17.81-12.48,27.42-.76,2.44-1.26,4.94-1.83,7.43a164.37,164.37,0,0,1-5.08,17"/><path class="cls-127" d="M713.5,587.5l-6,14c-1.3,3-3.69,5.64-5.41,8.42-3.34,5.41-4.19,11.5-5.59,17.58"/><path class="cls-127" d="M701.5,642.5c-1.17,2.82-3.47,5.16-4.81,8a69.94,69.94,0,0,0-3.83,10.61,102,102,0,0,0-4.22,19.68c-.56,6,.27,11.81.86,17.75l1,4"/><path class="cls-127" d="M702.48,686.48c-.29,2.45-.37,4.91-.81,7.33-.54,2.94-2.24,5-3.17,7.69"/><path class="cls-127" d="M774.5,688.5c1.33,6.65,2.92,13.16,3.11,20,.14,5.16-1.57,9.92-3.2,14.72-1,3-3.58,4.42-5.91,6.29"/><polyline class="cls-127" points="748.5 739.5 765.5 736.5 776.5 734.5 781.5 734.5"/><polyline class="cls-127" points="731.5 740.5 744.5 730.5 748.5 723.5"/><path class="cls-127" d="M747.5,776.5c8.35,0,16.42-.16,24.72,1a177,177,0,0,1,31.24,7.17"/><path class="cls-127" d="M785.5,808.5c5,1.79,9.93,3.66,14.89,5.5a26.63,26.63,0,0,1,3.17,1.34c3.16,1.66,5.52,4.49,7.78,7.26"/><path class="cls-127" d="M766.5,787.5c4.94,1.9,10.23,3.6,14.85,6.18a57.48,57.48,0,0,1,8.11,5.87"/><polyline class="cls-127" points="764.5 805.5 777.5 812.5 792.5 820.5"/><path class="cls-127" d="M757.5,808.5c3.9,1.77,10.2,3.09,12.08,7.29l3.9,8.72"/><polyline class="cls-127" points="775.5 820.5 778.5 824.5 783.5 836.5"/><polyline class="cls-127" points="747.5 816.5 762.5 828.5 777.5 836.5"/><polyline class="cls-126" points="726.5 816.5 729.5 822.5 739.5 833.5"/><path class="cls-126" d="M715.5,826.5c3.56,5.18,6.87,11.91,11.51,16.15a26.74,26.74,0,0,0,3.06,2.32l12.43,8.53"/><path class="cls-126" d="M709.5,826.5c3.82,11.71,7.83,21.69,16.62,30.73,7.74,7.94,17.23,14,27.25,18.8"/><path class="cls-128" d="M545.5,544.5c-3.71,6-4.81,10.26-6,17"/><path class="cls-128" d="M537.5,533.5c-2.92,2.63-5.85,5.24-8.72,7.91-4.13,3.85-8.6,8-12,12.8-3.76,5.3-5.67,11.42-8.31,17.29"/><path class="cls-128" d="M499.5,557.5a166.44,166.44,0,0,0,6,43"/><line class="cls-128" x1="499.5" y1="596.5" x2="504.5" y2="600.5"/><line class="cls-128" x1="496.5" y1="600.5" x2="500.5" y2="607.5"/><polyline class="cls-128" points="492.5 614.5 502.5 627.5 512.5 638.5"/><path class="cls-128" d="M493.5,626.5c1.46,5.86,2.94,11.71,4.35,17.58a6.76,6.76,0,0,0,.84,2.23c1.1,1.62,4.09,1.62,5.81,2.19"/><path class="cls-129" d="M479.5,652.5c2.08,1.49,4.14,3,6.25,4.46,2.66,1.82,5.19,4.38,8.26,5.47a18.73,18.73,0,0,0,3.32.73q10.59,1.64,21.17,3.34"/><path class="cls-129" d="M476.5,660.5c5.22,4.7,10.57,9.33,16.65,12.89,5.45,3.19,11.44,5,17.35,7.11"/><path class="cls-129" d="M474.5,665.5c8.25,6,16.37,11.38,26.05,14.87"/><path class="cls-129" d="M471.5,672.5c2.72,2,6.63,3,9.66,4.46,3.4,1.62,6.77,3.3,10.2,4.86,6.74,3.06,13.77,5.72,21.19,6.46"/><path class="cls-129" d="M470.5,680.5a195.81,195.81,0,0,0,36,14"/><path class="cls-129" d="M470.5,687.5c11.22,4.59,21.78,9.46,34,11.1"/><path class="cls-126" d="M455.5,709.5c3,.24,6.58,2.69,9.36,3.84,3.39,1.4,6.82,2.72,10.31,3.84a62.87,62.87,0,0,0,21.36,3.4"/><polyline class="cls-126" points="451.5 711.5 463.5 716.5 480.5 722.5 495.5 728.5 503.5 731.5"/><polyline class="cls-126" points="450.5 714.5 462.5 719.5 481.5 727.5 498.5 734.5"/><path class="cls-130" d="M591.5,635.5c14.51-4,29-7.84,43.79-10.84,7.85-1.6,16.62-3.59,21-10.31"/><polyline class="cls-130" points="614.5 664.5 635.5 647.5 656.5 632.5"/><polyline class="cls-130" points="638.5 676.5 649.5 652.5 662.5 624.5"/><path class="cls-130" d="M665.69,680.61c-3.64,6.33-2.85,14.14-2.56,21.44.51,12.74-1.42,25-3.63,37.45"/><path class="cls-130" d="M691.5,714.5c1.42,6.15,4.87,13.46-.11,18.9"/><path class="cls-130" d="M527.12,604.28c10.48-13.9,12.33-31.71,20.38-46.78"/><path class="cls-130" d="M527.5,583.5c-3.71,9.63-6.61,18.42-4.71,29"/></g><g id="Mouth_Out" data-name="Mouth Out"><path class="cls-131" d="M543.17,511.53a187.38,187.38,0,0,0,.33,22l2,8c2.45,7.36,5.37,14.6,7.15,22.16,1.73,7.31.74,15.41,5,21.93,5.08,7.77,21.37,17.27,30.84,15.13,4.6-1,9.67-4.45,14-6.41,5.07-2.28,10.15-4.54,15.29-6.67,8.71-3.62,17.94-6,26.52-10.08A171.56,171.56,0,0,0,664.94,566c7.13-4.66,10.85-9.16,15.27-16.38a7.75,7.75,0,0,1,1.94-2.38,4.94,4.94,0,0,1,4.26-.48c2.11.64,3.44,2.86,5.67,2.8,3.95-.11,15.46,0,15.43-5.82,0-4.37,1-5,4.61-7.31a95.94,95.94,0,0,0,8.39-5.56c4.81-3.84,9.62-7.69,14.17-11.85a18.4,18.4,0,0,0,4.07-4.78c1-2,1.76-7.77.28-9.79-1.74-2.38-5.95-.93-8.4-.92a4.77,4.77,0,0,1-2.1-.3,4.29,4.29,0,0,1-1.23-1c-6.69-6.89-8.86-16.6-12.81-25.05-4.12-8.8-6.64-18.36-12.78-26.11a8.12,8.12,0,0,0-1.89-1.9,12.21,12.21,0,0,0-2.62-1,11.7,11.7,0,0,1-6.61-5.69c-.29-.55-12.08,1.93-13.09,2.07a79.21,79.21,0,0,1-16.57.63c-15.9-1.29-34.29-6.36-45.25-18.59a6.71,6.71,0,0,0-2-1.71,5.93,5.93,0,0,0-2.17-.45c-5.44-.34-11.22,1.14-16.55-.38-4.92-1.4-8.48-5.66-12-9.14a5.09,5.09,0,0,0-1.86-1.37c-2.7-.88-4.74.7-7.25-1.47-1.81-1.56-2.92-4.22-5.27-4.64-5.45-1-9.33,8.18-11.58,11.73a8.73,8.73,0,0,0-1,1.87,8.94,8.94,0,0,0-.33,2.3,133.33,133.33,0,0,1-2.27,20.17c-1.4,6.68-4.51,14.47-4.51,21.3C546.14,480.31,543.81,495.89,543.17,511.53Z"/></g><g id="Mouth_In" data-name="Mouth In"><path class="cls-132" d="M593.33,563.45a.51.51,0,0,0,0-.3c-.63-3.5-.64-8.14-3-11a13.17,13.17,0,0,0-5.12-3.24A130.26,130.26,0,0,0,569.11,543c-3.15-.88-8.54,6.84-7.41,9.81.4,1.05,2.42.11,3,1l3.76,5.65,14,8c.81.33,4.39-1.59,5.29-1.92l5.23-1.9a.48.48,0,0,0,.29-.19A.05.05,0,0,0,593.33,563.45Z"/><path class="cls-133" d="M569.9,558l-3.5-5.25a3.32,3.32,0,0,0-2.81-1.36,10.11,10.11,0,0,1,1.7-3.58c1.53-2.15,2.91-2.88,3.3-2.88a131,131,0,0,1,15.83,5.82,11.38,11.38,0,0,1,4.36,2.68c1.46,1.76,1.84,4.65,2.2,7.44.06.46.12.92.18,1.36l-4.06,1.47c-.27.1-.75.32-1.33.59s-2.06,1-2.79,1.18Z"/><path class="cls-134" d="M574.5,546.5v5l1,1c1,1,3.73.07,5,0,.06,0,0-2.81,0-3"/><path class="cls-134" d="M581.5,549.5c0,1.11-.47,4.52,0,5.5s2.85.5,4,.5h1.23a1.77,1.77,0,0,0,1.77-1.77v-.23"/><path class="cls-135" d="M569.9,558l-3.5-5.25a3.32,3.32,0,0,0-2.81-1.36,10.11,10.11,0,0,1,1.7-3.58c1.53-2.15,2.91-2.88,3.3-2.88a131,131,0,0,1,15.83,5.82,11.38,11.38,0,0,1,4.36,2.68c1.46,1.76,1.84,4.65,2.2,7.44.06.46.12.92.18,1.36l-4.06,1.47c-.27.1-.75.32-1.33.59s-2.06,1-2.79,1.18Z"/><path class="cls-134" d="M569.5,555.5a2.77,2.77,0,0,1,1.9.52l4.1,2.48,7,4-1.21,2"/><path class="cls-136" d="M593.38,564.48c-.41,2.27-3.24,4.33-4.69,6.09-1.77,2.17-3.13,4.36-6,4.88-4.84.88-12.55,2.5-16.43-1.61a17.92,17.92,0,0,1-2-3.05c-1.42-2.31-2.8-4.14-2.79-6.94s-1.5-12,1.28-13.15c1.73-.69,2.2-.81,4-.18,2.69,1,1.51,2.72,2.3,4.89.51,1.39,3.44,2.59,4.38,3.72a12.11,12.11,0,0,0,4.74,3.58c3.5,1.43,11.54-1.66,13.87-5.06,1-1.49-.67,1.79.36,2.91a7.91,7.91,0,0,1,.92,2.48A3,3,0,0,1,593.38,564.48Z"/></g><g id="Nose_Ear" data-name="Nose/Ear"><path class="cls-135" d="M572.5,513.5c0,1.84,0,2.87-1.61,3.85s-4,1.62-3.28,4a23.1,23.1,0,0,0,3,5.85c.92,1.36,2.21,2.6,2.67,4.22s.43,3,2.34,4a20,20,0,0,0,12.84,1.68,16,16,0,0,1,3.21-.47c4,.08,8.32,3.87,10.84-1.15"/><path class="cls-137" d="M701.5,521.5c-.09,2.3.16,4-1.33,5.94a10.35,10.35,0,0,1-1.9,2c-1,.78-3.73,1.38-3.82,2.8a2.42,2.42,0,0,0,.84,1.84c2.14,2.07,6,1.61,8.63,1.11a7.1,7.1,0,0,0,4.09-2.1c.54-.61,1-1.4,1.79-1.57a5,5,0,0,1,1.28,0c2.87.15,4.31-3.58,5.83-5.39a2.67,2.67,0,0,0,.51-.79,2.49,2.49,0,0,0,.08-.72V522.5"/><path class="cls-138" d="M727.84,509.3c2.15-.59,4.58-1.69,6.85-1.13,3.35.84,2.4,3.85.74,6.09-1.29,1.76-3.16,2.11-3.94,4.44"/><path class="cls-139" d="M722,513c-.74,2.21-2.71,5.34-1,7.43a8.48,8.48,0,0,1,1.92,2.65"/><path class="cls-140" d="M706,538c-1.2,1.49-1.14,3.7-2.43,5.1-1.55,1.69-4.48,1.79-6.61,1.87"/></g><g id="Glasses_Frames" data-name="Glasses Frames"><path class="cls-141" d="M557.5,414.5c-10.33,4-28.65,11-39,15l8.73,3.22a5,5,0,0,0,4.53,0q9.86-3.65,19.74-7.21"/><polyline class="cls-142" points="727.5 497.5 722.5 499.5 716.5 502.5 692.5 509.5 693.5 523.5 711.5 515.5 719.5 510.5 724.5 505.5 727.5 502.5 728.5 501.5 732.5 501.5"/><path class="cls-143" d="M694.1,511.54c-1.18-3.45-6.4-5.89-9.16-8-3.86-2.89-7.73-5.79-11.71-8.5-8-5.49-16.76-10.68-26.39-12.72-10.25-2.18-21.2-.21-31.66-1.45-8.18-1-16.9-2.51-24.18-6.55-7.68-4.26-8.8-11.61-14.16-17.83-7.25-8.41-17.74-13.46-27.92-17.38a232.45,232.45,0,0,0-23.59-7.64c-2.72-.72-4.83-1.76-6.72-1.5a4.37,4.37,0,0,0-2.71,1.55c-2.37,2.63-3,9.1-2.43,12.39.34,1.91,1.13,3.71,1.64,5.58,1.4,5.22.55,10.73.54,16.13a51.82,51.82,0,0,0,19,39.85c7,5.66,16.18,9.48,25,7.59,4.95-1.06,9.37-3.83,13.37-6.93,6.71-5.2,13-12.86,11.65-21.24-.17-1-.34-2.33.56-2.86a2.31,2.31,0,0,1,1.66-.07,41.67,41.67,0,0,1,17.65,8.4c-8.43,9.62-6.91,24.48-2.22,36.39,3.37,8.52,8.25,16.69,15.46,22.35a38.83,38.83,0,0,0,30.33,7.43,42.33,42.33,0,0,0,23.56-13.52c4.15-4.54,6.37-10.37,10.55-14.8,3.16-3.35,7.58-5.39,12.24-4.59,0-2.48.09-5,.13-7.45A13.81,13.81,0,0,0,694.1,511.54ZM575.7,489.36c-1.37,3.76-3.12,8.86-6.06,11.66a32.52,32.52,0,0,1-13.45,7.71c-15.18,4.35-28.16-12.52-32.52-25-1.84-5.25-2.16-11.66-2.3-17.25,0-.21,0-.42,0-.63a23.4,23.4,0,0,1,5.27-15.1c1.58-2,3.78-4.49,6.11-5.62,4-1.94,8.9-.53,12.78,1A107.17,107.17,0,0,1,560,452.74c8.27,4.83,15.93,14,17.32,23.62A26.84,26.84,0,0,1,575.7,489.36Zm85.89,55.45c-13.55,10.81-34.06,7.4-45.5-4.86-7.78-8.34-13.5-22.2-11.29-33.38,1.36-6.85,5.69-12.7,14.35-15.67,5.88-2,12.33-1.9,18.42-.62,12.66,2.66,27.57,8.64,33,21.55,1.77,4.2,2,8.87,2,13.42C672.62,532.71,667.21,540.32,661.59,544.81Z"/></g><g id="Lenses"><path class="cls-144" d="M521.37,466.5c0-.21,0-.42,0-.63a23.4,23.4,0,0,1,5.27-15.1c1.58-2,3.78-4.49,6.11-5.62,4-1.94,8.9-.53,12.78,1A107.17,107.17,0,0,1,560,452.74c8.27,4.83,15.93,14,17.32,23.62a26.84,26.84,0,0,1-1.66,13c-1.37,3.76-3.12,8.86-6.06,11.66a32.52,32.52,0,0,1-13.45,7.71c-15.18,4.35-28.16-12.52-32.52-25C521.83,478.5,521.51,472.09,521.37,466.5Z"/><path class="cls-144" d="M604.8,506.57c1.36-6.85,5.69-12.7,14.35-15.67,5.88-2,12.33-1.9,18.42-.62,12.66,2.66,27.57,8.64,33,21.55,1.77,4.2,2,8.87,2,13.42.08,7.46-5.33,15.07-10.95,19.56-13.55,10.81-34.06,7.4-45.5-4.86C608.31,531.61,602.59,517.75,604.8,506.57Z"/></g><g id="Layer_1_copy" data-name="Layer 1 copy"><path class="cls-145" d="M563.62,539.32c.3-3.33,3.12-3,5.2-3.25s3.71.71,3.58,3.25Z"/><path class="cls-146" d="M786.5,478.45c.43-1.15,1.17-2.87.15-3.4-4.93-2.58-4.37-11.51-10-14.82l4.56-7.05a10,10,0,0,0,1.8-3.89,3.48,3.48,0,0,0-1.62-3.69c-2.44-1.18-6.83,5.36-5.75-2.28.05-.33.07-.67.1-1a.41.41,0,0,1-.11-.07l.11.07c.68-.62,1.15-1.76,2.39-.64,2.21,2,3.22-.25,2.78-1.47-.59-1.61-4.39-14.26.28-12.66a14.19,14.19,0,0,1,.84-9.39c2.85-6.19,3.24-13,4.28-19.72.25-1.62-.18-4-1.81-3.8,2.09-4.92-.62-10.46-3.27-15.11a2,2,0,0,0-.75-.87c-1.23-.6-2.3,1.55-3.65,1.4s-1.29-2.31-1.29-3.8c0-2.46-2.32-4.67-4-6.15.82.48,2.41.82,3-.19.74-1.17-.52-1.75-1.1-2.46a29.23,29.23,0,0,0-2.45-2.65c-.6-.58-.9-.28-1.16.13a.5.5,0,0,1-.7.13c-2.26-1.59-3.56-3.4-2.09-6.57a6.08,6.08,0,0,0,.05-5.2l0,0c-1.11-2.36,2.93-3.3,2.81-5.46-.14-2.69-4.63-6.37-6.28-8.37a5.33,5.33,0,0,0-1.46-1.38,3.38,3.38,0,0,0-4.16,1.18,5.73,5.73,0,0,0-.68,4.53l-2.42-1.06c1.5.66-3.75,3.79-4.19,3.88-6.16,1.16-9.67-5.87-11.88-9.93-.62-1.13-1.43-2.4-2.71-2.52s-2.22,2-1,2.42c-2.87.65-6.67.9-8-1.74a6.56,6.56,0,0,1-.52-2.45l-1.16-14a5.68,5.68,0,0,0-.62-2.55c-1.47-2.36-5.09-1.33-7.55,0l-6.45,3.38a2.36,2.36,0,0,1-1.9.38c-1.12-.43-1-2-.93-3.2s-1.25-2.69-2.07-1.82a1.68,1.68,0,0,0-.32,1.08L705,324.4c-2,1.11-3.08-2.78-5.23-3.46-1.51-.48-3.52.72-4.56-.46-.73-.82-.3-2.08-.26-3.17.11-2.79-2.5-4.82-4.84-6.36-1.59-1-3.73-2.09-5.26-.95l2,3.89,1.34,2.6c1.11,2.15,2.23,4.73,1.12,6.87,1.35-2.61-3.81-5.36-5.5-5,.19,1.59,1,2.36.67,4.05a2.85,2.85,0,0,1-3.13-.77c-1.08-1-2.27-2.24-3.69-1.94-.52.11-1.05.44-1.54.26-.82-.3-.56-1.65.21-2.06a5.8,5.8,0,0,1,2.57-.28c.87,0,1.89-.44,2-1.3-1.71-1.45-4.62-5.47-6.56-6s-4.07-.28-5.67-1.43c-1.07-.76-1.91-2.12-3.22-2.09-3.09.09-2.17,6.93-5.25,6.67a14.88,14.88,0,0,1-1.88-.64c-3.24-.7-5.75,3.4-8.42,4.56-6.77,2.95-8.1-4.73-12.16-7.71-2.7-2-6.11-2.68-9.41-3.32l-4.86-.94a.5.5,0,0,0-.58.32c-.54,1.79.35,3.76.88,5.61s.32,4.72-1.65,5.34a15.08,15.08,0,0,1-2,.23c-4.25.75-4.53,8.56-8.85,8.64-5.58.11-4.07-9.08-8-11.19a.49.49,0,0,0-.66.23l-.47.91a.5.5,0,0,1-.74.18c-1.81-1.39-4.27-2.25-6.19-1-2.45,1.55-.78,5.42,2,4.81a4.66,4.66,0,0,1,2.72-.12,5,5,0,0,1-6.11.05c-.92-.67-1.72-1.66-3.15-1a3.24,3.24,0,0,0-1.67,2,22.7,22.7,0,0,1-6.46,9.8c-2.65,2.35-10.13,10.74-10.3,15.08a.51.51,0,0,1-.45.51,14.23,14.23,0,0,0-4.63,1c-1.62.82-3,2.09-4.54,3-2.87,1.76-19.31,3.88-17,9a.5.5,0,0,1-.34.71l-.53.09a.49.49,0,0,0-.3.83,5.25,5.25,0,0,1,1.17,3.9,14.12,14.12,0,0,1-1.81,5.05c-2,4-2.32,5.1-6.8,5.84,4.51,5.94,9,11.92,12.48,18.53,1.87,3.6,3.44,7.49,3.45,11.55s-1.82,8.32-5.37,10.28A21.91,21.91,0,0,0,558,413.46l-8.4,14.08a7.34,7.34,0,0,0,7.71-7.12l1.28,11.12a34.32,34.32,0,0,0,6-11.7l-3.16,1.75a2.89,2.89,0,0,1,3.56-3.32,6.81,6.81,0,0,0,.72,4.29c.84,1.22,2.93,1.64,3.74.4.58-.88.24-2,.34-3.1a3.56,3.56,0,1,1,7.08.7l-2.32,2.68a11,11,0,0,0,13.14.78l1.36,3.2c3-.57,5.9,1.36,8.84,2.31s7.19,0,7.43-3a10.38,10.38,0,0,0,9.88,9.29c1.23,2.39,7.42,9.41,9.67,10.71a20.64,20.64,0,0,0,8.38,2.23,76.13,76.13,0,0,0,27.9-2.39c1.76-.49,4.33-.58,4.67,1.21.24,1.25-1,2.3-1.25,3.55-.52,2.57,3.07,4,5.63,3.48s5.23-1.94,7.66-.95a5,5,0,0,0,2,.69c1.24,0,1.94-1.38,2.72-2.36,2-2.6,8.13,6.85,8.92,8,3.45,5,5.93,8.81,5.14,15.08-.36,2.84.4,6.08-1.43,8.44-2.23,2.85-2.65,6.21-3.07,9.4-.79,6,4.71,12.73,2.85,17.91-.85,2.39-3.13,3.91-4.83,5.8s-2.8,5-1.07,6.84l-3.28.85c-.15,1.75,1.86,3,3.61,2.9s3.29-1.11,4.88-1.86,3.54-1.21,5-.31c.94.57,1.66,1.64,2.76,1.7,1.59.08,3.43-2,4.4-.7.45.6.21,1.61.82,2s1.37-.06,1.92-.52l5.28-4.5a32.4,32.4,0,0,0,1.61,5.72c.17.42.4.9.84,1a1.48,1.48,0,0,0,1.09-.3l5.19-3-6.63-.77c7.87-12.72,14.46-1.89,24.15,1a1.76,1.76,0,0,0,.79.1c.83-.16,1-1.39.47-2.08s-1.3-1.07-1.9-1.67a3.44,3.44,0,0,1,3-5.82c2,.32,4,2.27,5.61,1.06a3.41,3.41,0,0,0,1-1.74,24.66,24.66,0,0,0,1.1-8.32c1.8-.48,3.11,1.65,3.75,3.4s2,3.87,3.79,3.33c2.53-.78.94-5,2.5-7.11a1.87,1.87,0,0,1,.83,1.57c.7.09,1.19-.72,1.21-1.42s-.25-1.39-.19-2.09c.14-1.58,1.89-2.55,3.48-2.59a36.16,36.16,0,0,1,4.69.71,1.5,1.5,0,0,0,.94-.13,1.34,1.34,0,0,0,.26-1.6c-.53-1.35-1.8-2.25-2.68-3.42-2-2.64.36-5.57,3.15-3.33a8.25,8.25,0,0,1,2.25,3.84c-1.15-3.17-.93-6.66-2.61-10,1.78-1.43,3.53-1,4.54,1.2,1.15,2.5,3.11,2.92,5.72,1.91a.66.66,0,0,0,.17-.12c1.12-1.11,3.43-1.8,2-4-2.37-3.57-2.5-3.94,0-7.18A14.85,14.85,0,0,0,786.5,478.45ZM750,351.22l.08.12s0,0,0,0C750,351.79,749.76,351.32,750,351.22ZM738.42,495.31c.18-.12.34-.24.5-.37a1.58,1.58,0,0,0,.09.31ZM701.47,381.4h-.07a.08.08,0,0,1,0,0Zm41.88,53.37v.09l-.08,0Zm-75.71-68,0,0h0Zm-22.83,16.11v0a1.54,1.54,0,0,1,.54-.07A4.34,4.34,0,0,1,644.81,382.87Zm-4.17,7.42a2.46,2.46,0,0,1-1-.21A6.73,6.73,0,0,1,640.64,390.29Zm82.45,68.15,0,0H723ZM770,419.07s0,0,0,0l0,0Zm-43.15,88.79v0h0ZM633.63,332.24l.13,0-.09.16Zm-17.29,90.35a.5.5,0,0,1,0,.12l-.15-.12Zm157.92,56.78v0h0Zm2.08-99.18ZM580.72,338.78a5.47,5.47,0,0,0-.44.63,6,6,0,0,0-1-.71C579.74,338.74,580.24,338.75,580.72,338.78ZM604.08,416l0-.1.13,0h0Zm89,106.94c.08.08.15.17.23.26h-.23Zm16.77-4.12a2.33,2.33,0,0,0,.07-.25l.28,0h0Z"/></g></svg>