<svg id="Layer_1" data-name="Layer 1" xmlns="http://www.w3.org/2000/svg" xmlns:xlink="http://www.w3.org/1999/xlink" viewBox="0 0 24.08 24.08"><defs><style>.cls-1{fill:none;}.cls-2{fill:#fff;}.cls-3{clip-path:url(#clip-path);}.cls-4{fill:#892cdf;}.cls-5{fill:#892cde;}.cls-6{fill:#882ddd;}.cls-7{fill:#882ddc;}.cls-8{fill:#872ddb;}.cls-9{fill:#872eda;}.cls-10{fill:#872ed9;}.cls-11{fill:#862ed8;}.cls-12{fill:#862fd7;}.cls-13{fill:#862fd6;}.cls-14{fill:#8530d5;}.cls-15{fill:#8530d4;}.cls-16{fill:#8430d3;}.cls-17{fill:#8431d2;}.cls-18{fill:#8431d1;}.cls-19{fill:#8331d0;}.cls-20{fill:#8332cf;}.cls-21{fill:#8332ce;}.cls-22{fill:#8232cd;}.cls-23{fill:#8233cc;}.cls-24{fill:#8133cb;}.cls-25{fill:#8133ca;}.cls-26{fill:#8134c9;}.cls-27{fill:#8034c8;}.cls-28{fill:#8034c7;}.cls-29{fill:#8035c6;}.cls-30{fill:#7f35c5;}.cls-31{fill:#7f35c4;}.cls-32{fill:#7e36c3;}.cls-33{fill:#7e36c2;}.cls-34{fill:#7e36c1;}.cls-35{fill:#7d37c0;}.cls-36{fill:#7d37bf;}.cls-37{fill:#7d37be;}.cls-38{fill:#7c38bd;}.cls-39{fill:#7c38bc;}.cls-40{fill:#7c39bb;}.cls-41{fill:#7b39b9;}.cls-42{fill:#7b39b8;}.cls-43{fill:#7a3ab7;}.cls-44{fill:#7a3ab6;}.cls-45{fill:#7a3ab5;}.cls-46{fill:#793bb4;}.cls-47{fill:#793bb3;}.cls-48{fill:#793bb2;}.cls-49{fill:#783cb1;}.cls-50{fill:#783cb0;}.cls-51{fill:#773caf;}.cls-52{fill:#773dae;}.cls-53{fill:#773dad;}.cls-54{fill:#763dac;}.cls-55{fill:#763eab;}.cls-56{fill:#763eaa;}.cls-57{fill:#753ea9;}.cls-58{fill:#753fa8;}.cls-59{fill:#743fa7;}.cls-60{fill:#743fa6;}.cls-61{fill:#7440a5;}.cls-62{fill:#7340a4;}.cls-63{fill:#7340a3;}.cls-64{fill:#7341a2;}.cls-65{fill:#7241a1;}.cls-66{fill:#7242a0;}.cls-67{fill:#71429f;}.cls-68{fill:#71429e;}.cls-69{fill:#71439d;}.cls-70{fill:#70439c;}.cls-71{fill:#70439b;}</style><clipPath id="clip-path"><rect class="cls-1" x="5.2" y="17.55" width="13.42" height="1.17"/></clipPath></defs><circle class="cls-2" cx="12.04" cy="12.04" r="12.04"/><g id="Layer_2" data-name="Layer 2"><path d="M7.72,17.31A5,5,0,0,1,5.89,17a2.84,2.84,0,0,1-1.33-1.14,3.86,3.86,0,0,1-.49-2.1v-4a3.86,3.86,0,0,1,.49-2.1A2.78,2.78,0,0,1,5.89,6.46a4.59,4.59,0,0,1,1.83-.35,5,5,0,0,1,2,.36,3.3,3.3,0,0,1,1.4,1,2.73,2.73,0,0,1,.46,1.62,1.13,1.13,0,0,1-.29.91,1.55,1.55,0,0,1-.89.22,2.08,2.08,0,0,1-.82-.13.61.61,0,0,1-.37-.57,2.41,2.41,0,0,0,0-.38A1.42,1.42,0,0,0,9,8.71a1,1,0,0,0-.39-.38,1.55,1.55,0,0,0-.76-.15,1.29,1.29,0,0,0-1,.37A1.55,1.55,0,0,0,6.49,9.7v4a1.56,1.56,0,0,0,.36,1.15,1.41,1.41,0,0,0,1,.37,1.5,1.5,0,0,0,.69-.11,1,1,0,0,0,.39-.39,1.84,1.84,0,0,0,.14-.51,4.1,4.1,0,0,0,.06-.49.61.61,0,0,1,.4-.61,2,2,0,0,1,.8-.14,1.46,1.46,0,0,1,.91.22,1.1,1.1,0,0,1,.29.9,3,3,0,0,1-.46,1.76,3.26,3.26,0,0,1-1.4,1.09A5,5,0,0,1,7.72,17.31Z"/><path d="M16.26,17.31A5,5,0,0,1,14.43,17a2.92,2.92,0,0,1-1.36-1.14,3.86,3.86,0,0,1-.49-2.1v-4a3.91,3.91,0,0,1,.49-2.12,2.81,2.81,0,0,1,1.36-1.14,4.59,4.59,0,0,1,1.83-.35,4.92,4.92,0,0,1,2,.36,3.29,3.29,0,0,1,1.36,1,2.72,2.72,0,0,1,.45,1.64,1.13,1.13,0,0,1-.29.91,1.59,1.59,0,0,1-.9.22,2,2,0,0,1-.81-.13.61.61,0,0,1-.37-.57,2.41,2.41,0,0,0,0-.38,1.42,1.42,0,0,0-.16-.45,1,1,0,0,0-.47-.38,1.67,1.67,0,0,0-.76-.15,1.28,1.28,0,0,0-1,.37A1.55,1.55,0,0,0,15,9.7v4a1.56,1.56,0,0,0,.36,1.15,1.41,1.41,0,0,0,1,.37,1.52,1.52,0,0,0,.76-.11,1,1,0,0,0,.39-.39,1.78,1.78,0,0,0,.17-.49,4.1,4.1,0,0,0,.06-.49.61.61,0,0,1,.38-.63,2,2,0,0,1,.8-.14,1.46,1.46,0,0,1,.91.22,1.1,1.1,0,0,1,.29.92,3,3,0,0,1-.5,1.72,3.22,3.22,0,0,1-1.36,1.09A5,5,0,0,1,16.26,17.31Z"/><g class="cls-3"><polygon class="cls-4" points="6.92 17.55 5.2 17.57 5.2 17.55 6.92 17.55"/><polygon class="cls-5" points="8.7 17.55 5.2 17.59 5.2 17.57 6.92 17.55 8.7 17.55"/><polygon class="cls-6" points="10.48 17.55 5.2 17.61 5.2 17.59 8.7 17.55 10.48 17.55"/><polygon class="cls-7" points="12.26 17.55 5.2 17.63 5.2 17.61 10.48 17.55 12.26 17.55"/><polygon class="cls-8" points="14.03 17.55 5.2 17.65 5.2 17.63 12.26 17.55 14.03 17.55"/><polygon class="cls-9" points="15.81 17.55 5.2 17.67 5.2 17.65 14.03 17.55 15.81 17.55"/><polygon class="cls-10" points="17.59 17.55 5.2 17.69 5.2 17.67 15.81 17.55 17.59 17.55"/><polygon class="cls-11" points="18.62 17.56 5.2 17.71 5.2 17.69 17.59 17.55 18.62 17.55 18.62 17.56"/><polygon class="cls-12" points="18.62 17.58 5.2 17.73 5.2 17.71 18.62 17.56 18.62 17.58"/><polygon class="cls-13" points="18.62 17.6 5.2 17.75 5.2 17.73 18.62 17.58 18.62 17.6"/><polygon class="cls-14" points="18.62 17.62 5.2 17.76 5.2 17.75 18.62 17.6 18.62 17.62"/><polygon class="cls-15" points="18.62 17.64 5.2 17.79 5.2 17.76 18.62 17.62 18.62 17.64"/><polygon class="cls-16" points="18.62 17.66 5.2 17.8 5.2 17.79 18.62 17.64 18.62 17.66"/><polygon class="cls-17" points="18.62 17.68 5.2 17.82 5.2 17.8 18.62 17.66 18.62 17.68"/><polygon class="cls-18" points="18.62 17.7 5.2 17.84 5.2 17.82 18.62 17.68 18.62 17.7"/><polygon class="cls-19" points="18.62 17.72 5.2 17.86 5.2 17.84 18.62 17.7 18.62 17.72"/><polygon class="cls-20" points="18.62 17.74 5.2 17.88 5.2 17.86 18.62 17.72 18.62 17.74"/><polygon class="cls-21" points="18.62 17.75 5.2 17.9 5.2 17.88 18.62 17.74 18.62 17.75"/><polygon class="cls-22" points="18.62 17.77 5.2 17.92 5.2 17.9 18.62 17.75 18.62 17.77"/><polygon class="cls-23" points="18.62 17.79 5.2 17.94 5.2 17.92 18.62 17.77 18.62 17.79"/><polygon class="cls-24" points="18.62 17.81 5.2 17.96 5.2 17.94 18.62 17.79 18.62 17.81"/><polygon class="cls-25" points="18.62 17.83 5.2 17.98 5.2 17.96 18.62 17.81 18.62 17.83"/><polygon class="cls-26" points="18.62 17.85 5.2 18 5.2 17.98 18.62 17.83 18.62 17.85"/><polygon class="cls-27" points="18.62 17.87 5.2 18.02 5.2 18 18.62 17.85 18.62 17.87"/><polygon class="cls-28" points="18.62 17.89 5.2 18.04 5.2 18.02 18.62 17.87 18.62 17.89"/><polygon class="cls-29" points="18.62 17.91 5.2 18.06 5.2 18.04 18.62 17.89 18.62 17.91"/><polygon class="cls-30" points="18.62 17.93 5.2 18.08 5.2 18.06 18.62 17.91 18.62 17.93"/><polygon class="cls-31" points="18.62 17.95 5.2 18.1 5.2 18.08 18.62 17.93 18.62 17.95"/><polygon class="cls-32" points="18.62 17.97 5.2 18.12 5.2 18.1 18.62 17.95 18.62 17.97"/><polygon class="cls-33" points="18.62 17.99 5.2 18.14 5.2 18.12 18.62 17.97 18.62 17.99"/><polygon class="cls-34" points="18.62 18.01 5.2 18.16 5.2 18.14 18.62 17.99 18.62 18.01"/><polygon class="cls-35" points="18.62 18.03 5.2 18.18 5.2 18.16 18.62 18.01 18.62 18.03"/><polygon class="cls-36" points="18.62 18.05 5.2 18.2 5.2 18.18 18.62 18.03 18.62 18.05"/><polygon class="cls-37" points="18.62 18.07 5.2 18.22 5.2 18.2 18.62 18.05 18.62 18.07"/><polygon class="cls-38" points="18.62 18.09 5.2 18.24 5.2 18.22 18.62 18.07 18.62 18.09"/><polygon class="cls-39" points="18.62 18.11 5.2 18.25 5.2 18.24 18.62 18.09 18.62 18.11"/><polygon class="cls-40" points="18.62 18.13 5.2 18.27 5.2 18.25 18.62 18.11 18.62 18.13"/><polygon class="cls-41" points="18.62 18.15 5.2 18.29 5.2 18.27 18.62 18.13 18.62 18.15"/><polygon class="cls-42" points="18.62 18.17 5.2 18.31 5.2 18.29 18.62 18.15 18.62 18.17"/><polygon class="cls-43" points="18.62 18.18 5.2 18.33 5.2 18.31 18.62 18.17 18.62 18.18"/><polygon class="cls-44" points="18.62 18.21 5.2 18.35 5.2 18.33 18.62 18.18 18.62 18.21"/><polygon class="cls-45" points="18.62 18.22 5.2 18.37 5.2 18.35 18.62 18.21 18.62 18.22"/><polygon class="cls-46" points="18.62 18.24 5.2 18.39 5.2 18.37 18.62 18.22 18.62 18.24"/><polygon class="cls-47" points="18.62 18.26 5.2 18.41 5.2 18.39 18.62 18.24 18.62 18.26"/><polygon class="cls-48" points="18.62 18.28 5.2 18.43 5.2 18.41 18.62 18.26 18.62 18.28"/><polygon class="cls-49" points="18.62 18.3 5.2 18.45 5.2 18.43 18.62 18.28 18.62 18.3"/><polygon class="cls-50" points="18.62 18.32 5.2 18.47 5.2 18.45 18.62 18.3 18.62 18.32"/><polygon class="cls-51" points="18.62 18.34 5.2 18.49 5.2 18.47 18.62 18.32 18.62 18.34"/><polygon class="cls-52" points="18.62 18.36 5.2 18.51 5.2 18.49 18.62 18.34 18.62 18.36"/><polygon class="cls-53" points="18.62 18.38 5.2 18.53 5.2 18.51 18.62 18.36 18.62 18.38"/><polygon class="cls-54" points="18.62 18.4 5.2 18.55 5.2 18.53 18.62 18.38 18.62 18.4"/><polygon class="cls-55" points="18.62 18.42 5.2 18.57 5.2 18.55 18.62 18.4 18.62 18.42"/><polygon class="cls-56" points="18.62 18.44 5.2 18.59 5.2 18.57 18.62 18.42 18.62 18.44"/><polygon class="cls-57" points="18.62 18.46 5.2 18.61 5.2 18.59 18.62 18.44 18.62 18.46"/><polygon class="cls-58" points="18.62 18.48 5.2 18.63 5.2 18.61 18.62 18.46 18.62 18.48"/><polygon class="cls-59" points="18.62 18.5 5.2 18.65 5.2 18.63 18.62 18.48 18.62 18.5"/><polygon class="cls-60" points="18.62 18.52 5.2 18.67 5.2 18.65 18.62 18.5 18.62 18.52"/><polygon class="cls-61" points="18.62 18.54 5.2 18.69 5.2 18.67 18.62 18.52 18.62 18.54"/><polygon class="cls-62" points="18.62 18.56 5.2 18.71 5.2 18.69 18.62 18.54 18.62 18.56"/><polygon class="cls-63" points="18.62 18.58 5.46 18.72 5.2 18.72 5.2 18.71 18.62 18.56 18.62 18.58"/><polygon class="cls-64" points="18.62 18.6 7.24 18.72 5.46 18.72 18.62 18.58 18.62 18.6"/><polygon class="cls-65" points="18.62 18.62 9.02 18.72 7.24 18.72 18.62 18.6 18.62 18.62"/><polygon class="cls-66" points="18.62 18.64 10.8 18.72 9.02 18.72 18.62 18.62 18.62 18.64"/><polygon class="cls-67" points="18.62 18.65 12.58 18.72 10.8 18.72 18.62 18.64 18.62 18.65"/><polygon class="cls-68" points="18.62 18.67 14.35 18.72 12.58 18.72 18.62 18.65 18.62 18.67"/><polygon class="cls-69" points="18.62 18.7 16.13 18.72 14.35 18.72 18.62 18.67 18.62 18.7"/><polygon class="cls-70" points="18.62 18.71 17.91 18.72 16.13 18.72 18.62 18.7 18.62 18.71"/><polygon class="cls-71" points="17.91 18.72 18.62 18.71 18.62 18.72 17.91 18.72"/></g></g></svg>