<svg xmlns="http://www.w3.org/2000/svg" viewBox="0 0 16 16"><defs><style>.cls-1{fill:#579cd6;}</style></defs><g id="Layer_1" data-name="Layer 1"><path class="cls-1" d="M15.36,0H.64A.64.64,0,0,0,0,.64V15.36A.64.64,0,0,0,.64,16H15.36a.64.64,0,0,0,.64-.64V.64A.64.64,0,0,0,15.36,0ZM4.92,13.7H2.54V6.54H4.92ZM3.72,5.17A1.44,1.44,0,1,1,5.16,3.73,1.44,1.44,0,0,1,3.72,5.17Zm10,8.53H11.31V9.57a1.2,1.2,0,0,0-2.38-.24c0,.11,0,.21,0,.31V13.7H6.54V6.54H8.92v.87a7.12,7.12,0,0,1,.67-.58A2.48,2.48,0,0,1,12.71,7a2.73,2.73,0,0,1,1,2.13V13.6S13.7,13.66,13.7,13.7Z"/></g></svg>