<svg id="Layer_1" data-name="Layer 1" xmlns="http://www.w3.org/2000/svg" viewBox="0 0 432 432"><defs><style>.cls-1{fill:#1b1e2b;}.cls-2{fill:#bd95c2;}.cls-3{fill:#f1bf5e;}.cls-4{fill:#212535;}</style></defs><rect class="cls-1" width="432" height="432"/><path class="cls-2" d="M341.91,207a8.81,8.81,0,0,1,2,5,9,9,0,0,1-6.74,9.21,12.07,12.07,0,0,1-7.83-.14,1.19,1.19,0,0,0-1.31.23,3.15,3.15,0,0,0-1.34,2.93A2.72,2.72,0,0,0,329,226.5a12.58,12.58,0,0,0,3.35.45c2.56,0,5.12,0,7.68,0a15.85,15.85,0,0,1,4.63.75c3.61,1.18,4.62,3.76,4,7.21-.49,2.6-2.3,4.32-4.53,5.6A21,21,0,0,1,332.84,243a20.4,20.4,0,0,1-7.88-1.53c-4.32-1.91-5.88-7.5-1.27-11.05.52-.4,1.05-.78,1.61-1.19a2.34,2.34,0,0,0-.3-.32c-3.21-1.94-3-5.86-.63-8.26a2.81,2.81,0,0,1,.48-.44c1-.54.87-1,.09-1.73-3.77-3.66-3.18-10.5,1.12-13.7a12,12,0,0,1,10.38-2,9.12,9.12,0,0,0,2.27.29c3.07,0,6.14,0,9.21,0,.66,0,.87.18.88.86.07,3.09.09,3.09-3,3.09Z"/><path class="cls-2" d="M238.2,210.66c1.07.33,2,.57,2.87.89a8.18,8.18,0,0,1,5.54,8.47c-.21,6-4.4,9-9.25,10-3.7.75-7.44.32-11.15.43-1.39,0-2.79,0-4.17,0-.64,0-.81-.2-.8-.81,0-2.15,0-4.3,0-6.45,0-9.48,0-19,0-28.44,0-1.1.32-1.32,1.35-1.29,4,.12,7.9-.13,11.84.21a14,14,0,0,1,6.73,2c2.83,1.88,3.69,4.72,3.33,7.92a7.67,7.67,0,0,1-5.13,6.64C239,210.41,238.72,210.49,238.2,210.66Z"/><path class="cls-2" d="M191.77,207.61a21,21,0,0,1,4.17-3.49,11.27,11.27,0,0,1,11.28-.53c2.15,1,3.16,3,3.77,5.25a20.2,20.2,0,0,1,.53,5.2c0,5.1,0,10.2,0,15.31,0,.81-.14,1.2-1.06,1.11a16.71,16.71,0,0,0-2.74,0c-.82.06-1.07-.2-1.06-1,0-4.3,0-8.61,0-12.91a34.94,34.94,0,0,0-.22-5c-.65-4.19-3.72-5.36-7.31-4.8-3,.47-4.94,2.53-6.95,4.51-.36.36-.26.82-.26,1.24,0,5.62,0,11.23,0,16.85,0,.88-.18,1.25-1.13,1.15a13.26,13.26,0,0,0-2.52,0c-1,.11-1.21-.28-1.21-1.22,0-9.59,0-19.18,0-28.76,0-3,0-6.06,0-9.08,0-.74.18-1.06,1-1a16.49,16.49,0,0,0,2.63,0c.94-.09,1.27.18,1.25,1.18-.1,5.18.13,10.35-.31,15.52A4.83,4.83,0,0,0,191.77,207.61Z"/><path class="cls-2" d="M134,218.19c-3.26,0-6.51,0-9.77,0-.82,0-1,.26-.87,1a9.25,9.25,0,0,0,6.83,7.58A13.75,13.75,0,0,0,141,225.17c.85-.51,1.3-.43,1.63.48a.69.69,0,0,0,.1.19c1.16,2.08,1.16,2.09-.91,3.17a18,18,0,0,1-13.8,1.4A13.38,13.38,0,0,1,118.31,218c-.26-5.47,1.45-10,6.09-13.26s11.67-3.15,16,.1c2.94,2.23,4.16,5.35,4.47,8.89.1,1.09,0,2.19,0,3.28,0,.82-.27,1.22-1.22,1.2C140.42,218.15,137.2,218.19,134,218.19Z"/><path class="cls-2" d="M300.15,202.43c7.23,0,12.53,4.92,13.38,12.24a16.4,16.4,0,0,1-1.08,8.44c-2.19,5.18-6.7,8-12.55,8A12.82,12.82,0,0,1,287.26,222a16.39,16.39,0,0,1,.35-11.34C289.69,205.41,294.34,202.41,300.15,202.43Z"/><path class="cls-2" d="M92.32,214.57c0-2.47,0-4.58,0-6.69,0-.68-.17-.88-.85-.87-2,.05-4,0-5.93,0-.72,0-.93-.22-.94-.93,0-2.69-.07-2.7,2.57-2.83,1.5-.07,3-.16,4.49-.17.66,0,.86-.17.9-.85.1-2.29.32-4.57.44-6.86,0-.81.33-1.18,1.19-1.07s2.15-.39,2.74.22.17,1.8.19,2.74c0,1.45,0,2.91,0,4.37s0,1.43,1.38,1.43c3.66,0,7.31,0,11,0,.86,0,1.19.21,1.08,1.08s.4,2.13-.24,2.72-1.75.15-2.65.15c-3.15,0-6.29,0-9.44,0-.82,0-1.14.16-1.13,1.07.06,3.78,0,7.58,0,11.37a19.11,19.11,0,0,0,.2,2.61c.44,3.24,2.37,4.95,5.66,5.1a17,17,0,0,0,6.67-.94c.75-.27,1.09-.11,1.23.64a5.19,5.19,0,0,0,.22.74c.59,1.94.59,2-1.33,2.52a19.93,19.93,0,0,1-11,.47c-3.48-.93-5.32-3.38-6-6.79C92.09,220.63,92.38,217.42,92.32,214.57Z"/><path class="cls-2" d="M168.24,202.43a13.42,13.42,0,0,1,9.22,3.37c.57.46.7.8.16,1.38s-1.07,1.8-1.83,2.11-1.5-.8-2.24-1.28A10.47,10.47,0,0,0,161,209c-3.28,3.08-4,7-2.83,11.14,1.15,4,4,6.18,8.1,6.85,3.58.6,6.61-.58,9.37-2.7.68-.51,1.11-.6,1.49.23a2.9,2.9,0,0,0,.25.36c1.45,2.07,1.45,2.07-.71,3.52-6.18,4.13-15.17,3.56-20.07-1.34-3.41-3.42-4.3-7.66-3.8-12.28C153.64,207.3,160,202.3,168.24,202.43Z"/><path class="cls-3" d="M61,214.8c.59.18,1.08.32,1.56.49a4.6,4.6,0,0,1,3.28,4.42c.22,3.72-.25,7.43-.23,11.14a11,11,0,0,0,.17,2.06,3.4,3.4,0,0,0,2.59,2.78,21.85,21.85,0,0,0,6,.46c.39,0,1-.27,1.09.37a4.93,4.93,0,0,1-.09,2.35c0,.08-.26.1-.39.1-2.88-.05-5.77.22-8.6-.59-3.26-.93-4.83-2.92-4.92-6.33s.46-7.05.46-10.58c0-2.65-.78-3.79-3.32-4.53a11.12,11.12,0,0,0-3.89-.51c-.72,0-.93-.23-.94-.94,0-2.24,0-2.21,2.2-2.34a11.81,11.81,0,0,0,2.36-.43c2.82-.75,3.58-1.83,3.59-4.74,0-3.46-.59-6.89-.45-10.36a6.35,6.35,0,0,1,2.38-5.27,9.28,9.28,0,0,1,4.28-1.5,53.66,53.66,0,0,1,6.46-.24c.71,0,.94.19.94.92,0,1.93,0,1.92-1.86,1.94a28.9,28.9,0,0,0-4,.18c-2.75.4-4,1.7-4,4.5,0,3.28.19,6.55.25,9.83a13.36,13.36,0,0,1-.12,2.61C65.27,213,64.28,213.82,61,214.8Z"/><path class="cls-3" d="M370.59,214.8l-1.19-.34a4.47,4.47,0,0,1-3.6-4.4,87,87,0,0,1,.15-9.28,19.86,19.86,0,0,0-.08-3.93,3.43,3.43,0,0,0-2.61-2.91,17.58,17.58,0,0,0-5.87-.46c-1,0-1.43-.21-1.26-1.24a5.67,5.67,0,0,0,0-1.09c0-.37.16-.53.53-.53a41.55,41.55,0,0,1,7.64.38c4.59.92,5.94,3.5,5.79,7.85-.11,2.91-.34,5.82-.46,8.73-.15,3.32,1.06,4.77,4.37,5.36a12.26,12.26,0,0,0,2.83.24c.74-.05.92.26.92,1,0,2.17,0,2.15-2.2,2.31a11.57,11.57,0,0,0-1.94.33c-3.33.84-4.11,2.05-4,5.45.14,3.56.69,7.11.33,10.68-.31,3.07-2,4.85-5,5.58-2.73.66-5.52.46-8.29.49-.43,0-.53-.2-.57-.59-.23-2.19-.19-2.25,2-2.25a17.52,17.52,0,0,0,5-.43,3.48,3.48,0,0,0,2.75-3,24.18,24.18,0,0,0,.08-4.58c-.09-2.22-.28-4.44-.27-6.66C365.69,216.91,366.94,215.73,370.59,214.8Z"/><path class="cls-2" d="M268.16,207c0,5.06,0,10.13,0,15.19,0,4,3,5.17,5.93,4.94a10.11,10.11,0,0,0,3.58-.91c.75-.36,1.06-.15,1.23.58.07.32.21.62.31.93.65,2,1,1.65-1.17,2.46a14.7,14.7,0,0,1-8.92.53,7.31,7.31,0,0,1-5.33-5.41,16.57,16.57,0,0,1-.47-4.76c0-8.31,0-16.62,0-24.93,0-1-.21-1.32-1.26-1.29-2.52.08-5,0-7.57,0-.74,0-1-.2-1-1-.05-3-.08-3,2.94-3,3.54,0,7.09,0,10.64,0,.83,0,1.05.26,1.05,1.06,0,5.18,0,10.35,0,15.53Z"/><path class="cls-4" d="M334.07,239.42a14.4,14.4,0,0,1-6.22-1c-1.83-.82-2.84-2.18-2.76-3.71a5.36,5.36,0,0,1,3.17-4,1.07,1.07,0,0,1,.53,0c2.95.53,5.91.17,8.87.27a19,19,0,0,1,3.91.42c2.55.6,3.34,3,1.64,5-1.56,1.83-3.76,2.42-6,2.88A11.74,11.74,0,0,1,334.07,239.42Z"/><path class="cls-4" d="M333.25,205.94a6.24,6.24,0,0,1,6.23,6.29,6.18,6.18,0,1,1-12.35.11A6.15,6.15,0,0,1,333.25,205.94Z"/><path class="cls-4" d="M226.08,219.76V214c0-.38-.12-.83.55-.81,3.31.11,6.65-.32,9.93.45a6.59,6.59,0,0,1,4.31,2.53,6.42,6.42,0,0,1-2.24,8.88,11.89,11.89,0,0,1-5.15,1.26c-2.08.08-4.17,0-6.25.07-1,0-1.2-.32-1.17-1.23C226.13,223.33,226.08,221.54,226.08,219.76Z"/><path class="cls-4" d="M226.08,203.29c0-1.63,0-3.27,0-4.91,0-.34-.11-.77.48-.75,3.1.05,6.21-.24,9.25.58,2.59.71,3.79,2.11,3.88,4.47.09,2.78-1.18,4.78-3.61,5.59a16.23,16.23,0,0,1-5.18.73c-1.35,0-2.7,0-4,0-.64,0-.8-.21-.79-.82C226.11,206.57,226.08,204.93,226.08,203.29Z"/><path class="cls-4" d="M131.9,214.38c-2.53,0-5.05,0-7.57,0-.73,0-1,0-.8-.95a9.11,9.11,0,0,1,12.69-6.37c2.9,1.32,3.84,3.92,4.21,6.82.08.7-.52.47-.86.48Z"/><path class="cls-4" d="M308.68,216.92c-.13,2.93-.73,5.78-3,8a8,8,0,0,1-12.85-2.28,12.54,12.54,0,0,1,.59-12.61,7.49,7.49,0,0,1,7.28-3.59,7.88,7.88,0,0,1,6.8,4.79A13.73,13.73,0,0,1,308.68,216.92Z"/></svg>