<svg id="Layer_1" data-name="Layer 1" xmlns="http://www.w3.org/2000/svg" viewBox="0 0 24.08 24.08"><defs><style>.cls-1{fill:#fff;}.cls-2{fill:#333;}</style></defs><circle class="cls-1" cx="12.04" cy="12.04" r="12.04"/><path class="cls-2" d="M2.08,13.9a3.49,3.49,0,0,0,1,2.52,3.63,3.63,0,0,0,2.5,1.12.12.12,0,0,0,.13-.13v-1c0-.09,0-.14-.13-.14A2.3,2.3,0,0,1,4,15.55a2.4,2.4,0,0,1,1.53-4l.39,0c.08,0,.12,0,.12-.11l.06-.4a3.07,3.07,0,0,1,1-2A3,3,0,0,1,9.2,8.14a3.07,3.07,0,0,1,2.11.8,3,3,0,0,1,1,2l.05.43a.15.15,0,0,0,.16.13h1.18a2.42,2.42,0,0,1,2.41,2.41,2.36,2.36,0,0,1-.65,1.66,2.3,2.3,0,0,1-1.61.74c-.09,0-.15,0-.15.13v1c0,.08.06.12.15.12a3.62,3.62,0,0,0,3.51-3.63,4.36,4.36,0,0,0-.28-1.49,4,4,0,0,0,.55-4,3.7,3.7,0,0,0-.83-1.24,3.92,3.92,0,0,0-1.23-.83,3.75,3.75,0,0,0-1.51-.31,3.68,3.68,0,0,0-2.86,1.29,4.45,4.45,0,0,0-2-.49A4.39,4.39,0,0,0,4.9,10.34a3.47,3.47,0,0,0-2,1.28A3.55,3.55,0,0,0,2.08,13.9Zm4,5.2a.71.71,0,0,0,.12.38.62.62,0,0,0,.35.26.63.63,0,0,0,.47,0,.6.6,0,0,0,.3-.41l.1-.46a.61.61,0,0,0-.07-.46.65.65,0,0,0-.39-.3.56.56,0,0,0-.47.06.59.59,0,0,0-.28.39L6.06,19A.68.68,0,0,0,6,19.1ZM6.61,17a.58.58,0,0,0,.18.42.54.54,0,0,0,.41.19.61.61,0,0,0,.45-.18A.55.55,0,0,0,7.83,17a.6.6,0,0,0-.18-.44.64.64,0,0,0-.45-.18.61.61,0,0,0-.43.17A.65.65,0,0,0,6.61,17Zm.45-1.68a.45.45,0,0,0,.1.33A.64.64,0,0,0,8,15.8a.59.59,0,0,0,.31-.38l.2-.67a.57.57,0,0,0-.05-.48A.66.66,0,0,0,8,14a.52.52,0,0,0-.47,0,.62.62,0,0,0-.3.37l-.18.68C7.07,15.21,7.06,15.27,7.06,15.28Zm.85,6.13a.6.6,0,0,0,.12.36.64.64,0,0,0,.36.25l.18,0a.54.54,0,0,0,.59-.45l.1-.44a.7.7,0,0,0-.06-.5.51.51,0,0,0-.39-.27.51.51,0,0,0-.46.05.61.61,0,0,0-.3.37l-.11.45A.94.94,0,0,0,7.91,21.41Zm.42-16.6a.64.64,0,0,0,.17.45L9,5.73a.58.58,0,0,0,.86,0,.63.63,0,0,0,0-.88l-.47-.48A.59.59,0,0,0,9,4.18a.62.62,0,0,0-.63.63ZM8.5,19.27a.61.61,0,0,0,.17.43.63.63,0,0,0,.43.17.62.62,0,0,0,.44-.17.57.57,0,0,0,.17-.43.61.61,0,0,0-.17-.43.58.58,0,0,0-.44-.17.61.61,0,0,0-.43.17A.56.56,0,0,0,8.5,19.27ZM9,17.59a.5.5,0,0,0,.1.34.47.47,0,0,0,.33.23.66.66,0,0,0,.48-.05.63.63,0,0,0,.3-.41l.19-.67a.53.53,0,0,0,0-.46.65.65,0,0,0-.39-.3.58.58,0,0,0-.48.06.65.65,0,0,0-.3.39L9,17.39A.62.62,0,0,0,9,17.59Zm2,1.59a.58.58,0,0,0,.11.35.59.59,0,0,0,.34.24h.1l.11,0a.54.54,0,0,0,.56-.49l.1-.44a.56.56,0,0,0-.05-.47.66.66,0,0,0-.38-.3.62.62,0,0,0-.5.06.63.63,0,0,0-.3.39L11,19a.45.45,0,0,1,0,.08A.49.49,0,0,0,11,19.18ZM11.54,17a.54.54,0,0,0,.18.42.55.55,0,0,0,.43.18.62.62,0,0,0,.44-.17.57.57,0,0,0,.17-.43.62.62,0,0,0-.17-.44.58.58,0,0,0-.44-.17.62.62,0,0,0-.44.17A.6.6,0,0,0,11.54,17ZM12,15.28a.56.56,0,0,0,.11.35.61.61,0,0,0,.37.24l.08,0h.11a.6.6,0,0,0,.27-.07.55.55,0,0,0,.3-.38l.18-.67a.56.56,0,0,0-.06-.46A.62.62,0,0,0,13,14a.59.59,0,0,0-.47.05.62.62,0,0,0-.3.37l-.2.68a.37.37,0,0,1,0,.08A.19.19,0,0,0,12,15.28Zm.25-7.19a2.48,2.48,0,0,1,1.83-.73A2.6,2.6,0,0,1,16,8.11,2.48,2.48,0,0,1,16.71,10a2.71,2.71,0,0,1-.39,1.39,3.51,3.51,0,0,0-2.59-1.09H13.5A4.58,4.58,0,0,0,12.25,8.09ZM13.47,4.2a.61.61,0,0,0,.17.43.62.62,0,0,0,.44.17.69.69,0,0,0,.46-.17.53.53,0,0,0,.18-.43V2.67a.61.61,0,0,0-.19-.45A.63.63,0,0,0,14.08,2a.57.57,0,0,0-.43.18.63.63,0,0,0-.17.45V4.2Zm4.09,1.67a.62.62,0,0,0,1.06.44l1.06-1a.63.63,0,0,0,.19-.47.56.56,0,0,0-.19-.44.59.59,0,0,0-.44-.19.64.64,0,0,0-.45.18L17.73,5.43A.62.62,0,0,0,17.56,5.87Zm.57,8.77a.57.57,0,0,0,.2.43l.46.47a.68.68,0,0,0,.45.18.72.72,0,0,0,.44-.18.56.56,0,0,0,.19-.44.65.65,0,0,0-.19-.46l-.48-.45a.54.54,0,0,0-.42-.18.64.64,0,0,0-.45.18A.62.62,0,0,0,18.13,14.64ZM19.23,10a.59.59,0,0,0,.19.43.61.61,0,0,0,.46.2h1.5a.6.6,0,0,0,.44-.18A.64.64,0,0,0,22,10a.61.61,0,0,0-.18-.45.59.59,0,0,0-.44-.18h-1.5a.65.65,0,0,0-.46.18A.61.61,0,0,0,19.23,10Z"/></svg>