<svg xmlns="http://www.w3.org/2000/svg" xmlns:xlink="http://www.w3.org/1999/xlink" viewBox="0 0 12.04 16"><defs><style>.cls-1{fill:url(#linear-gradient);}.cls-2{fill:url(#linear-gradient-2);}</style><linearGradient id="linear-gradient" x1="4.3" y1="8" x2="12.04" y2="8" gradientUnits="userSpaceOnUse"><stop offset="0" stop-color="#7690f5"/><stop offset="0.22" stop-color="#6d72ed"/><stop offset="0.56" stop-color="#614ae2"/><stop offset="0.84" stop-color="#5930db"/><stop offset="1" stop-color="#5627d8"/></linearGradient><linearGradient id="linear-gradient-2" y1="4.68" x2="5.09" y2="4.68" gradientUnits="userSpaceOnUse"><stop offset="0.07" stop-color="#ff3631"/><stop offset="1" stop-color="#ff3631" stop-opacity="0.8"/></linearGradient></defs><g id="Layer_1" data-name="Layer 1"><path class="cls-1" d="M6.22,16H5.75A1.45,1.45,0,0,1,4.3,14.55V8L8.07,1.08A2.1,2.1,0,0,1,9.9,0H12L6.62,7.45a2.1,2.1,0,0,0-.4,1.23Z"/><path class="cls-2" d="M3.89,2.88A2.09,2.09,0,0,0,1.94,1.53H0l4.13,6.3,1-1.76Zm.2,4L.9,2h1a1.59,1.59,0,0,1,1.49,1L4.55,6Z"/></g></svg>