<svg xmlns="http://www.w3.org/2000/svg" viewBox="0 0 16 16"><defs><style>.cls-1{fill:#ce9178;}</style></defs><g id="Layer_1" data-name="Layer 1"><path class="cls-1" d="M0,.64V15.36A.64.64,0,0,0,.64,16H5.12a.49.49,0,0,1,.51-.43.4.4,0,0,0,.4-.41V13.73a11.18,11.18,0,0,1-1.43,0,1.55,1.55,0,0,1-1.32-1,2.41,2.41,0,0,0-.94-1.17c-.1-.06-.14-.2-.21-.3.13,0,.26-.14.38-.12A1.7,1.7,0,0,1,3.75,12a1.59,1.59,0,0,0,2.05.71.57.57,0,0,0,.25-.28c.14-.28.25-.57.37-.86-.25-.05-.53-.1-.8-.17a3.25,3.25,0,0,1-2.7-3.17,3.6,3.6,0,0,1,.67-2.64.39.39,0,0,0,0-.32A3.26,3.26,0,0,1,3.74,3.5a.26.26,0,0,1,.34-.17c.53.2,1.08.39,1.6.63A.9.9,0,0,0,6.47,4,3.78,3.78,0,0,1,9.66,4a.79.79,0,0,0,.58,0c.54-.21,1.08-.45,1.63-.65.22-.08.36,0,.43.28a3.54,3.54,0,0,1,.07,1.65.58.58,0,0,0,.13.42,4,4,0,0,1-.64,5,4.49,4.49,0,0,1-2.17.81l-.21,0A2.38,2.38,0,0,1,10,13.35c0,.57,0,1.14,0,1.71,0,.33.1.53.46.52s.37.21.45.42h4.48a.64.64,0,0,0,.64-.64V.64A.64.64,0,0,0,15.36,0H.64A.64.64,0,0,0,0,.64Z"/></g></svg>