<svg xmlns="http://www.w3.org/2000/svg" viewBox="0 0 16 16"><defs><style>.cls-1{fill:#d7ba7d;}</style></defs><g id="Layer_1" data-name="Layer 1"><path class="cls-1" d="M10.45,2.66c-.81,0-1.63,0-2.44,0s-1.64,0-2.46,0A2.86,2.86,0,0,0,2.66,5.55v4.9a2.86,2.86,0,0,0,2.89,2.89h4.91a2.87,2.87,0,0,0,2.89-2.89V5.55A2.87,2.87,0,0,0,10.45,2.66ZM8,11.36A3.34,3.34,0,1,1,11.39,8,3.33,3.33,0,0,1,8,11.36Zm3.39-6a.75.75,0,1,1,.74-.75A.75.75,0,0,1,11.41,5.32Z"/><path class="cls-1" d="M8,5.72A2.3,2.3,0,1,0,10.35,8,2.3,2.3,0,0,0,8,5.72Z"/><path class="cls-1" d="M0,.64V15.36A.64.64,0,0,0,.64,16H15.36a.64.64,0,0,0,.64-.64V.64A.64.64,0,0,0,15.36,0H.64A.64.64,0,0,0,0,.64ZM14.39,10.77c0,.21-.07.42-.12.62a3.92,3.92,0,0,1-4,3,36.2,36.2,0,0,0-4.54,0,3.11,3.11,0,0,1-.61,0,3.91,3.91,0,0,1-3.52-3.84q0-2.52,0-5A3.91,3.91,0,0,1,4.71,1.71c.17,0,.35-.06.52-.09h5.54l.13,0a3.9,3.9,0,0,1,3.33,2.81c.07.25.1.51.16.77Z"/></g></svg>