<svg xmlns="http://www.w3.org/2000/svg" viewBox="0 0 57.15 16"><defs><style>.cls-1{fill:#d7ba7d;}.cls-2{fill:#9bdcfe;}</style></defs><g id="Layer_1" data-name="Layer 1"><path class="cls-1" d="M2,11.68a1.26,1.26,0,0,1-.21.86,1.07,1.07,0,0,1-.78.22,1.06,1.06,0,0,1-.76-.21A1.22,1.22,0,0,1,0,11.71a1.2,1.2,0,0,1,.22-.86A1,1,0,0,1,1,10.63a1.06,1.06,0,0,1,.76.21A1.22,1.22,0,0,1,2,11.68Z"/><path class="cls-1" d="M7.78,12.68l-1.1,3a.41.41,0,0,1-.28.22,2.24,2.24,0,0,1-.68.08l-.38,0a.51.51,0,0,1-.22-.08A.2.2,0,0,1,5,15.75a.49.49,0,0,1,0-.22l1.14-2.85a.61.61,0,0,1-.16-.12.5.5,0,0,1-.1-.17L3,4.54A.88.88,0,0,1,3,4.24.21.21,0,0,1,3,4.06.45.45,0,0,1,3.26,4,2.51,2.51,0,0,1,3.7,4l.43,0a.72.72,0,0,1,.24,0,.19.19,0,0,1,.13.1,1.14,1.14,0,0,1,.09.19L6.94,10.9H7L9.23,4.27a.38.38,0,0,1,.13-.22A.45.45,0,0,1,9.59,4,2.64,2.64,0,0,1,10,4a2.42,2.42,0,0,1,.42,0,.45.45,0,0,1,.24.08.22.22,0,0,1,.08.18.83.83,0,0,1-.06.27Z"/><path class="cls-1" d="M19.92,8.25a6,6,0,0,1-.27,1.85,4.2,4.2,0,0,1-.79,1.46,3.72,3.72,0,0,1-1.31.95,4.56,4.56,0,0,1-1.83.34,4.75,4.75,0,0,1-1.77-.3,3.12,3.12,0,0,1-1.25-.88A3.59,3.59,0,0,1,12,10.28a6.3,6.3,0,0,1-.25-1.86A6.36,6.36,0,0,1,12,6.57a4,4,0,0,1,.79-1.46,3.52,3.52,0,0,1,1.31-1,4.67,4.67,0,0,1,1.83-.34,4.59,4.59,0,0,1,1.77.31A3.2,3.2,0,0,1,18.91,5a3.79,3.79,0,0,1,.76,1.4A6.57,6.57,0,0,1,19.92,8.25Zm-1.57.1a6.41,6.41,0,0,0-.12-1.26,3.1,3.1,0,0,0-.41-1,2.11,2.11,0,0,0-.77-.71,2.62,2.62,0,0,0-1.22-.26,2.54,2.54,0,0,0-1.15.24,2.09,2.09,0,0,0-.8.67,3,3,0,0,0-.47,1,5.25,5.25,0,0,0-.15,1.29,5.69,5.69,0,0,0,.13,1.27,3,3,0,0,0,.41,1,2,2,0,0,0,.78.7,2.46,2.46,0,0,0,1.21.26A2.76,2.76,0,0,0,17,11.35a2.26,2.26,0,0,0,.8-.67,3,3,0,0,0,.46-1A5.37,5.37,0,0,0,18.35,8.35Z"/><path class="cls-1" d="M29.21,12.45a.16.16,0,0,1,0,.12s-.06.06-.12.09a.89.89,0,0,1-.23.05,1.89,1.89,0,0,1-.36,0,2.12,2.12,0,0,1-.38,0,.9.9,0,0,1-.22-.05c-.06,0-.1-.05-.12-.09a.16.16,0,0,1,0-.12V7.64a4.82,4.82,0,0,0-.11-1.13,2.27,2.27,0,0,0-.32-.74,1.38,1.38,0,0,0-.54-.48A1.71,1.71,0,0,0,26,5.13a1.9,1.9,0,0,0-1.13.4,6,6,0,0,0-1.19,1.18v5.74a.16.16,0,0,1,0,.12s-.06.06-.12.09a.9.9,0,0,1-.22.05,2.12,2.12,0,0,1-.38,0,1.89,1.89,0,0,1-.36,0,1.11,1.11,0,0,1-.24-.05c-.05,0-.09-.05-.11-.09a.16.16,0,0,1,0-.12V4.24a.28.28,0,0,1,0-.13A.35.35,0,0,1,22.27,4a.65.65,0,0,1,.21,0l.34,0,.33,0a.54.54,0,0,1,.21,0,.45.45,0,0,1,.1.09.28.28,0,0,1,0,.13V5.32a5.33,5.33,0,0,1,1.39-1.14,3,3,0,0,1,1.39-.36,3.14,3.14,0,0,1,1.38.28,2.5,2.5,0,0,1,.91.75,3,3,0,0,1,.5,1.09,6.43,6.43,0,0,1,.15,1.5Z"/><path class="cls-2" d="M39,12.45a.28.28,0,0,1,0,.13.24.24,0,0,1-.11.08.54.54,0,0,1-.21.05,1.37,1.37,0,0,1-.31,0,1.57,1.57,0,0,1-.32,0,.65.65,0,0,1-.21-.05.24.24,0,0,1-.11-.08.2.2,0,0,1,0-.13V11.36a5.4,5.4,0,0,1-1.35,1.1,3.06,3.06,0,0,1-1.53.39,3.21,3.21,0,0,1-1.54-.35,2.85,2.85,0,0,1-1-.95,4.1,4.1,0,0,1-.58-1.4,7.86,7.86,0,0,1-.19-1.71,7.52,7.52,0,0,1,.23-1.91,4.28,4.28,0,0,1,.68-1.46,3,3,0,0,1,1.11-.92A3.38,3.38,0,0,1,35,3.82a2.8,2.8,0,0,1,1.32.32,4.8,4.8,0,0,1,1.18.93V.29a.27.27,0,0,1,0-.12.19.19,0,0,1,.12-.09L37.86,0l.36,0,.38,0,.23.06A.27.27,0,0,1,39,.17a.19.19,0,0,1,0,.12ZM37.48,6.67A6.26,6.26,0,0,0,36.3,5.52a2.06,2.06,0,0,0-1.2-.4,1.68,1.68,0,0,0-1,.27,2.21,2.21,0,0,0-.66.73,3.64,3.64,0,0,0-.36,1A5.54,5.54,0,0,0,33,8.28a8,8,0,0,0,.1,1.21,4,4,0,0,0,.33,1.06,2.16,2.16,0,0,0,.63.74,1.72,1.72,0,0,0,1,.27,1.89,1.89,0,0,0,.58-.08,2,2,0,0,0,.57-.27,5,5,0,0,0,.61-.5,7.57,7.57,0,0,0,.68-.75Z"/><path class="cls-2" d="M48,12.46a.18.18,0,0,1-.07.16.53.53,0,0,1-.2.09l-.37,0-.38,0a.41.41,0,0,1-.21-.09.2.2,0,0,1-.06-.16v-.82a4.07,4.07,0,0,1-1.2.89,3.23,3.23,0,0,1-1.4.32,3.62,3.62,0,0,1-1.18-.17,2.41,2.41,0,0,1-.89-.49,2.16,2.16,0,0,1-.58-.78,2.71,2.71,0,0,1-.2-1.06,2.42,2.42,0,0,1,.28-1.2,2.35,2.35,0,0,1,.81-.85,3.93,3.93,0,0,1,1.3-.51,8.22,8.22,0,0,1,1.72-.17h1.14V7a3.58,3.58,0,0,0-.1-.84,1.46,1.46,0,0,0-.33-.6,1.29,1.29,0,0,0-.58-.37,2.73,2.73,0,0,0-.87-.12,3.37,3.37,0,0,0-1,.13,6.18,6.18,0,0,0-.78.29l-.56.29a.75.75,0,0,1-.33.14.28.28,0,0,1-.13,0,.33.33,0,0,1-.09-.11.47.47,0,0,1-.06-.19,1.81,1.81,0,0,1,0-.25,1.73,1.73,0,0,1,0-.36.47.47,0,0,1,.16-.25,2,2,0,0,1,.42-.28,5.3,5.3,0,0,1,.7-.29,6.18,6.18,0,0,1,.85-.22,5,5,0,0,1,.94-.09A4.74,4.74,0,0,1,46.23,4a2.34,2.34,0,0,1,1,.58,2.28,2.28,0,0,1,.56,1A4.5,4.5,0,0,1,48,6.92ZM46.47,8.71H45.18a5,5,0,0,0-1.08.1,2.35,2.35,0,0,0-.75.31,1.26,1.26,0,0,0-.45.5,1.53,1.53,0,0,0-.14.66,1.36,1.36,0,0,0,.41,1,1.6,1.6,0,0,0,1.13.37,2.12,2.12,0,0,0,1.1-.3,4.74,4.74,0,0,0,1.07-.92Z"/><path class="cls-2" d="M57.15,4.22v.07s0,.06,0,.09l0,.1,0,.12-2.8,7.8a.55.55,0,0,1-.1.17.45.45,0,0,1-.17.1,1.82,1.82,0,0,1-.31.05h-.45a3.1,3.1,0,0,1-.46,0,1.55,1.55,0,0,1-.29-.05.5.5,0,0,1-.18-.1.29.29,0,0,1-.1-.16l-2.8-7.8c0-.07,0-.14-.06-.19s0-.1,0-.12a.2.2,0,0,1,0-.07.2.2,0,0,1,0-.13A.19.19,0,0,1,49.49,4l.23,0h.35l.43,0a.72.72,0,0,1,.24,0,.25.25,0,0,1,.13.09.74.74,0,0,1,.08.13L53.27,11l0,.11,0-.11,2.29-6.78a.27.27,0,0,1,.07-.13A.25.25,0,0,1,55.82,4a.67.67,0,0,1,.24,0l.39,0h.35A.54.54,0,0,1,57,4a.24.24,0,0,1,.11.08A.28.28,0,0,1,57.15,4.22Z"/></g></svg>