<svg xmlns="http://www.w3.org/2000/svg" viewBox="0 0 415.05 412.12"><defs><style>.cls-1{fill:#d07bb3;}.cls-1,.cls-2{stroke:#000;stroke-miterlimit:10;}.cls-2{fill:none;}</style></defs><g id="Layer_6" data-name="Layer 6"><path class="cls-1" d="M135.65,401.19c20.22,2.21,39.95,5.48,60.58,4.9a289.76,289.76,0,0,0,67.65-10c9.22-2.5,19.87-2.86,28.58-6.73a55.92,55.92,0,0,1,5.48-2.46,17.56,17.56,0,0,1,5.68-.72c8.26.12,20.5-2.36,27.79,0,12.61,4.16,30.34-3.69,36.38-15.79,2.83-5.66-2-11.7-.56-17.38s6.13-6.69,10.69-8.86c15.62-7.42,8.73-30,2.87-41.75a103,103,0,0,1,12-5c10.14-3.37,15.56-12,15.59-22.28,0-7.9-.48-16.38-5.3-22.65-3.62-4.71-9.16-7.46-14.52-10.05l-.09,0c15.94-8.35,35-20.56,21.53-41.36-6.74-10.44-23-19.58-35.21-21.62-11.21-1.86-22.86-2-34.18-2.85a22.11,22.11,0,0,0-7.4.27c-7.38,2-11.82,4.54-19.82,4.48-8.54-.08-17-1.58-25.5-2.18a13.7,13.7,0,0,1-4.27-.76c-4.66-1.92-5.71-8-5.62-13,.49-27.47,16.86-46.64,29.69-68.17,4.73-7.94,9-16.19,11.77-25.31C324.89,54.12,330.18-2.57,297.88.63a7.15,7.15,0,0,0-4.16,1.53,3.28,3.28,0,0,0-.78,4.07c-10-1.09-7.21,16.92-8.45,22.63-1.93,8.84-6.27,17.49-10.93,25.2-7.21,11.94-16.69,22.3-24.13,34.09-6.07,9.63-11.31,19.75-17.64,29.24-4.73,7.1-13,12.53-19.35,18-8.31,7.21-12.86,14.25-17.89,24.06-6.59,12.84-16.39,22.58-25,33.94-7.24,9.57-12.07,20.73-21.05,29.08-12.27,11.41-27.48,19.5-43.34,24.69a190.83,190.83,0,0,1-40.82,8.43C50,257,36.91,255.12,23.24,261.29c-3.78,1.71-8.08,1.53-12.11,2-3.14.34-6.42,1.21-8.49,3.76-4.33,5.35-.84,14.1-.33,20.13q1.19,14,2.52,27.93c2.54,26,5.61,51.88,10.53,77.54.91,4.8,1.91,9.65,4.05,14,1,2,2.41,4.08,4.58,4.66,4.56,1.22,11.45-1.46,15.87-2.48,32-7.38,62.93-11.65,95.78-7.56"/><line class="cls-2" x1="292.79" y1="6.39" x2="297.79" y2="12.39"/><path class="cls-2" d="M284.79,32.39s6-6,10-11,3-12,3-12"/><path class="cls-2" d="M307.69,97.15l.1.24"/><path class="cls-2" d="M291.79,72.39s11,7,13,15a73.58,73.58,0,0,0,2.9,9.76"/><path class="cls-2" d="M224.79,166.39s13-2,19,0,10-2,17,0,9,4,9,4"/><path class="cls-2" d="M247.29,167s3.5,1.42,8.5,3.42,6,3,6,3"/><path class="cls-2" d="M282.79,185.39a43.31,43.31,0,0,1-1-5,3.49,3.49,0,0,1,1-2s3,2,4,4l1,2,1,1"/><line class="cls-2" x1="135.65" y1="401.19" x2="135.79" y2="401.39"/><path class="cls-2" d="M131.79,340.39s-1,1-2,5,1,11,2,13c.78,1.56,1,11,1,17"/><path class="cls-2" d="M132.78,375.41c0,1.69,0,3.1,0,4,0,4,4,15,6,18s8,5,8,5"/><line class="cls-2" x1="132.78" y1="375.41" x2="132.79" y2="375.39"/><path class="cls-2" d="M133.79,289.39s-1,0-2-3a127.49,127.49,0,0,1-4-18c-1-7,2-12,3-18s12-19,12-19"/><path class="cls-2" d="M264.79,228.39c1,3.39.76,8.66.07,14.1"/><path class="cls-2" d="M264.86,242.49a144.69,144.69,0,0,1-3.07,15.9c-2,8-16,35-19,44s-3,19-3,23"/><path class="cls-2" d="M264.86,242.49v0"/><path class="cls-2" d="M264.86,242.49a223.7,223.7,0,0,1-13.07,33.9c-8,16-39,29-39,29"/><path class="cls-2" d="M283.79,193.39s0,19-1,27-7,22-13,33-7,25-7,25"/><line class="cls-2" x1="327.33" y1="197.94" x2="344.61" y2="192.82"/><path class="cls-2" d="M344.61,192.82l8.18-2.43s9-4,13-5a24.23,24.23,0,0,1,9,0"/><path class="cls-2" d="M305.74,196.13l-2.95.26a33.79,33.79,0,0,0-17,7"/><path class="cls-2" d="M305.74,196.13c8.95-.7,17.35-.44,20.05,2.26l1.54-.45"/><path class="cls-2" d="M344.61,192.82l2.18-2.43a11.25,11.25,0,0,0,4-5c1-3,10-3,10-3"/><polyline class="cls-2" points="342.79 187.39 340.79 192.39 344.61 192.82"/><path class="cls-2" d="M328.79,197.39l-1-1c-1-1,2-7,2-7"/><line class="cls-2" x1="329.79" y1="203.39" x2="327.33" y2="197.94"/><path class="cls-2" d="M305.74,196.13c0,.17.05.26.05.26"/><path class="cls-2" d="M305.74,196.13c-.18-1-.81-4.87.05-5.74l1-1"/><line class="cls-2" x1="295.79" y1="185.39" x2="295.84" y2="197.94"/><path class="cls-2" d="M308.79,226.39s-2,1,0,7l3,9"/><path class="cls-2" d="M285.79,211.39c2.67,1.34,5.41,3,6.95,5.65,2.47,4.29,2.55,13.07,1.72,17.9a9.28,9.28,0,0,1-3.38,6,2.82,2.82,0,0,1-1.28.58,3.44,3.44,0,0,1-1.85-.48,58.76,58.76,0,0,1-8.71-5.17"/><path class="cls-2" d="M291.79,242.39c6,1,8,1,12,2s9,5,9,5"/><path class="cls-2" d="M388.56,242.41l.23,0"/><path class="cls-2" d="M312.79,249.39s3,4,6,4,17,1,20,0,19-3,25-5,15-2,19-4a17.54,17.54,0,0,1,5.77-2"/><path class="cls-2" d="M276.73,274.5h0"/><path class="cls-2" d="M281.79,239.39c-1.58,1-3.06,2-3.59,3.91a9.26,9.26,0,0,1-.44,1.56,6.17,6.17,0,0,1-1.4,1.67c-4.63,4.66-5.81,14.2-5.81,20.41,0,4.21,2.29,6,6.18,7.56"/><path class="cls-2" d="M276.79,274.39c3,0,2,2,3,0s5-18,4-21-1-7-3-8-2-2-2-2"/><line class="cls-2" x1="283.79" y1="282.39" x2="279.79" y2="276.39"/><path class="cls-2" d="M276.73,274.5c-1,1.75-1.91,3.75-.8,5.67a9.53,9.53,0,0,0,3.35,3,20.45,20.45,0,0,0,6.45,3,9.8,9.8,0,0,1,2.28.59c2.47,1.16,3.16,4.83,5.79,5.56"/><path class="cls-2" d="M276.73,274.5l.06-.11"/><path class="cls-2" d="M293.79,292.39v.05A41.87,41.87,0,0,1,298.7,295a52.7,52.7,0,0,0,5,2.42,74.48,74.48,0,0,0,10.6,3.44c21.11,5.28,45.18,6.11,66.48,1.57l0-.09q-11.05,1.15-22.17,1.44c-3.69.1-7.4.51-11.11.54s-7.4-.57-11.09-.87a154.87,154.87,0,0,1-22-3.08,74.16,74.16,0,0,1-10.61-3.23,49.84,49.84,0,0,1-5-2.32,41.24,41.24,0,0,0-5-2.48l0,0"/><line class="cls-2" x1="293.79" y1="292.39" x2="294.79" y2="282.39"/><path class="cls-2" d="M292.79,278.39a157.59,157.59,0,0,1,0-16.12,14.38,14.38,0,0,1,.61-3.81,14.83,14.83,0,0,1,1.72-3.15,12.67,12.67,0,0,1,3-3.53c3.72-2.69,10.32-1.66,14.73-2.39"/><line class="cls-2" x1="288.79" y1="282.39" x2="288.89" y2="287.34"/><path class="cls-2" d="M267.79,287.39l2-4c1-2,3.5-10.36,3.5-10.36"/><path class="cls-2" d="M258.87,299.3a7.1,7.1,0,0,1,.17-.85"/><path class="cls-2" d="M278.79,284.39s-8,0-12,5c-.31.39-.61.74-.92,1.08"/><path class="cls-2" d="M265.79,290.39a.5.5,0,0,0,.08.08"/><path class="cls-2" d="M261.79,319.39c2.45,0,4.87.89,7.36.87a1.16,1.16,0,0,0,1.38-.87c3.43-8.07,5.26-15.24,5.26-24,0-2.63-7.64-2.91-9.92-4.91"/><path class="cls-2" d="M259,298.45c.8-3,3.48-4.39,6.41-7.51l.42-.47"/><path class="cls-2" d="M258.87,299.3c-.27,3.59-.57,7.32-.52,10.92.06,3.39.91,7,3.43,9.26"/><line class="cls-2" x1="279.79" y1="291.39" x2="275.79" y2="293.39"/><path class="cls-2" d="M284.79,298.39s1-5,3-5h7.63"/><path class="cls-2" d="M297.3,338.32c-1.08-.42-1.95-.74-2.51-.93"/><path class="cls-2" d="M288,336.19a57.14,57.14,0,0,1,6.79,1.2"/><path class="cls-2" d="M314.9,342.63q-3.5-.81-7-1.81c-2.2-.63-4.38-1.51-6.6-2.06-.1,0-2.64-.3-3.74-.33-.35,0-.55,0-.48.08,1.44,1.26,8.55,2.75,17.78,4.12"/><path class="cls-2" d="M367.43,346.68a7.65,7.65,0,0,0,1.08-.19,9,9,0,0,0,1.24-.41c.41-.15.4-.17,0,0a10.46,10.46,0,0,1-1.24.38l-1.07.23"/><path class="cls-2" d="M367.43,346.68c-7.29.94-34.13-1.32-52.53-4.05"/><path class="cls-2" d="M367.43,346.68a62.91,62.91,0,0,1-9.22,1.45c-8,.58-16.92-1.36-24.87-2.31a169.93,169.93,0,0,1-18.44-3.19"/><path class="cls-2" d="M261.79,319.39v3c0,3,1,4,3,6,1.47,1.48,4,2.41,6.87,3.59"/><path class="cls-2" d="M288,336.19c-4.86-.71-10.74-1.56-13.21-2.8-1.05-.52-2.11-1-3.13-1.41"/><path class="cls-2" d="M282.79,313.39s-2,12,0,15l5.21,7.8"/><line class="cls-2" x1="294.79" y1="337.39" x2="291.79" y2="334.39"/><path class="cls-2" d="M259,298.45v-.06"/><path class="cls-2" d="M258.87,299.3c.11-.48.15-.75.17-.85"/><path class="cls-2" d="M258.87,299.3c-.25,1.1-.81,3.29-2.08,7.09-2,6,0,16,0,16"/><path class="cls-2" d="M279.87,364.41c-.82-.4-1.65-.8-2.46-1.22-3.05-1.59-6.62-6.12-6.62-9.8,0-.65-1.3-2.18-2.75-4"/><path class="cls-2" d="M296.71,371.62a154.18,154.18,0,0,1-16.84-7.21"/><path class="cls-2" d="M265.79,346.39c.69,1,1.49,2.06,2.25,3"/><path class="cls-2" d="M265.79,346.39c-2-3-3-19-3-19"/><path class="cls-2" d="M296.79,371.39c3,0,30,13,30,13"/><path class="cls-2" d="M290.79,353.39s-1,5,0,7,12.59,13.3,12.59,13.3"/><line class="cls-2" x1="297.3" y1="338.32" x2="297.3" y2="338.32"/><line class="cls-2" x1="291.79" y1="342.39" x2="297.3" y2="338.32"/><path class="cls-2" d="M271.6,332.27c-8.17-2.18-6.22,9.58-5.81,14.12"/><line class="cls-2" x1="271.66" y1="331.98" x2="271.67" y2="331.98"/><path class="cls-2" d="M284.79,336.39c-1,3.84-2.24,8.33-5.44,10.93s-7.4,2.07-11.31,2.07"/><line class="cls-2" x1="279.87" y1="364.4" x2="279.87" y2="364.41"/><line class="cls-2" x1="279.87" y1="364.41" x2="281.79" y2="370.39"/><line class="cls-2" x1="296.79" y1="371.39" x2="297.79" y2="375.39"/><line class="cls-2" x1="303.62" y1="386.14" x2="303.79" y2="386.39"/><line class="cls-2" x1="299.79" y1="380.39" x2="303.62" y2="386.14"/><path class="cls-2" d="M284.79,373.39s-1,5,3,8a45.37,45.37,0,0,0,9,5h1"/></g></svg>